<?xml version="1.0" encoding="UTF-8"?><svg id="Layer_1" xmlns="http://www.w3.org/2000/svg" viewBox="0 0 1200 600"><defs><style>.cls-1{fill:none;}.cls-2{fill:#1a1718;}</style></defs><rect class="cls-1" width="1200" height="600"/><path class="cls-2" d="m1196,549.14c-.06,0-.1.05-.1.1s.05.1.1.1.1-.05.1-.1-.05-.1-.1-.1Z"/><path class="cls-2" d="m1171.33,561.09c-.27,0-.49.22-.49.49s.22.49.49.49.49-.22.49-.49-.22-.49-.49-.49Z"/><path class="cls-2" d="m1146.65,572.85c-.59,0-1.07.48-1.07,1.07s.48,1.07,1.07,1.07,1.07-.48,1.07-1.07-.48-1.07-1.07-1.07Z"/><path class="cls-2" d="m1121.97,586.09c-.09,0-.17.08-.17.17s.08.17.17.17.17-.08.17-.17-.08-.17-.17-.17Z"/><path class="cls-2" d="m1196,512.08c-.08,0-.15.06-.15.15s.07.15.15.15.15-.07.15-.15-.07-.15-.15-.15Z"/><path class="cls-2" d="m1171.33,523.27c-.71,0-1.29.58-1.29,1.29s.58,1.29,1.29,1.29,1.29-.58,1.29-1.29-.58-1.29-1.29-1.29Z"/><circle class="cls-2" cx="1146.65" cy="536.9" r=".74"/><path class="cls-2" d="m1121.97,548.34c-.5,0-.9.4-.9.9s.4.9.9.9.9-.4.9-.9-.4-.9-.9-.9Z"/><circle class="cls-2" cx="1097.29" cy="561.58" r="1.61"/><path class="cls-2" d="m1072.62,572.4c-.83,0-1.51.68-1.51,1.51s.68,1.51,1.51,1.51,1.51-.68,1.51-1.51-.68-1.51-1.51-1.51Z"/><path class="cls-2" d="m1047.94,585.9c-.2,0-.35.16-.35.35s.16.35.35.35.35-.16.35-.35-.16-.35-.35-.35Z"/><path class="cls-2" d="m1196,475.02c-.1,0-.18.08-.18.18s.08.18.18.18.18-.08.18-.18-.08-.18-.18-.18Z"/><path class="cls-2" d="m1171.33,486.15c-.77,0-1.4.62-1.4,1.4s.62,1.4,1.4,1.4,1.4-.62,1.4-1.4-.62-1.4-1.4-1.4Z"/><path class="cls-2" d="m1146.65,498.16c-.95,0-1.72.77-1.72,1.72s.77,1.72,1.72,1.72,1.72-.77,1.72-1.72-.77-1.72-1.72-1.72Z"/><path class="cls-2" d="m1121.97,511.24c-.54,0-.98.44-.98.98s.44.98.98.98.98-.44.98-.98-.44-.98-.98-.98Z"/><path class="cls-2" d="m1096.46,524.56c0,.46.37.84.84.84s.84-.37.84-.84-.37-.84-.84-.84-.84.37-.84.84Z"/><path class="cls-2" d="m1072.62,535.25c-.91,0-1.65.74-1.65,1.65s.74,1.65,1.65,1.65,1.65-.74,1.65-1.65-.74-1.65-1.65-1.65Z"/><path class="cls-2" d="m1047.94,547.11c-1.17,0-2.13.95-2.13,2.13s.95,2.13,2.13,2.13,2.13-.95,2.13-2.13-.95-2.13-2.13-2.13Z"/><path class="cls-2" d="m1023.26,559.36c-1.22,0-2.21.99-2.21,2.21s.99,2.21,2.21,2.21,2.21-.99,2.21-2.21-.99-2.21-2.21-2.21Z"/><path class="cls-2" d="m998.58,572.19c-.95,0-1.72.77-1.72,1.72s.77,1.72,1.72,1.72,1.72-.77,1.72-1.72-.77-1.72-1.72-1.72Z"/><path class="cls-2" d="m973.91,585.65c-.33,0-.61.27-.61.6s.27.61.61.61.61-.27.61-.61-.27-.6-.61-.6Z"/><circle class="cls-2" cx="1196" cy="438.19" r=".21"/><path class="cls-2" d="m1163.1,452.99c-.91,0-1.65.74-1.65,1.65s.74,1.65,1.65,1.65,1.65-.74,1.65-1.65-.74-1.65-1.65-1.65Z"/><circle class="cls-2" cx="1130.2" cy="471.09" r="2.05"/><path class="cls-2" d="m1098.51,487.54c0-.67-.54-1.21-1.21-1.21s-1.21.54-1.21,1.21.54,1.21,1.21,1.21,1.21-.54,1.21-1.21Z"/><path class="cls-2" d="m1064.39,502.93c-.59,0-1.07.48-1.07,1.07s.48,1.07,1.07,1.07,1.07-.48,1.07-1.07-.48-1.07-1.07-1.07Z"/><circle class="cls-2" cx="1031.49" cy="520.45" r="2.05"/><path class="cls-2" d="m998.58,534.28c-1.45,0-2.62,1.17-2.62,2.62s1.17,2.62,2.62,2.62,2.62-1.17,2.62-2.62-1.17-2.62-2.62-2.62Z"/><path class="cls-2" d="m965.68,550.61c-1.52,0-2.74,1.23-2.74,2.74s1.23,2.74,2.74,2.74,2.74-1.23,2.74-2.74-1.23-2.74-2.74-2.74Z"/><path class="cls-2" d="m932.78,567.6c-1.22,0-2.2.98-2.2,2.2s.99,2.2,2.2,2.2,2.2-.99,2.2-2.2-.99-2.2-2.2-2.2Z"/><path class="cls-2" d="m899.88,585.33c-.51,0-.92.41-.92.92s.41.92.92.92.92-.41.92-.92-.41-.92-.92-.92Z"/><circle class="cls-2" cx="1196" cy="401.17" r=".24"/><circle class="cls-2" cx="1165.16" cy="416.6" r="1.58"/><path class="cls-2" d="m1134.31,429.81c-1.22,0-2.21.99-2.21,2.21s.99,2.21,2.21,2.21,2.21-.99,2.21-2.21-.99-2.21-2.21-2.21Z"/><path class="cls-2" d="m1103.46,445.22c-1.23,0-2.23,1-2.23,2.23s1,2.23,2.23,2.23,2.23-1,2.23-2.23-1-2.23-2.23-2.23Z"/><path class="cls-2" d="m1072.62,464.31c.79,0,1.44-.64,1.44-1.44s-.64-1.44-1.44-1.44-1.44.64-1.44,1.44.64,1.44,1.44,1.44Z"/><path class="cls-2" d="m1041.77,477.11c-.65,0-1.18.53-1.18,1.18s.53,1.18,1.18,1.18,1.18-.53,1.18-1.18-.53-1.18-1.18-1.18Z"/><path class="cls-2" d="m1010.92,491.89c-1.01,0-1.82.82-1.82,1.82s.82,1.82,1.82,1.82,1.82-.82,1.82-1.82-.82-1.82-1.82-1.82Z"/><path class="cls-2" d="m980.08,506.49c-1.46,0-2.65,1.19-2.65,2.65s1.19,2.65,2.65,2.65,2.65-1.19,2.65-2.65-1.19-2.65-2.65-2.65Z"/><path class="cls-2" d="m949.23,521.47c-1.7,0-3.09,1.38-3.09,3.09s1.38,3.09,3.09,3.09,3.09-1.38,3.09-3.09-1.38-3.09-3.09-3.09Z"/><path class="cls-2" d="m918.38,536.67c-1.83,0-3.31,1.48-3.31,3.31s1.48,3.31,3.31,3.31,3.31-1.48,3.31-3.31-1.48-3.31-3.31-3.31Z"/><path class="cls-2" d="m887.54,552.36c-1.69,0-3.05,1.37-3.05,3.05s1.37,3.05,3.05,3.05,3.05-1.37,3.05-3.05-1.37-3.05-3.05-3.05Z"/><path class="cls-2" d="m856.69,568.43c-1.33,0-2.4,1.08-2.4,2.4s1.08,2.4,2.4,2.4,2.4-1.08,2.4-2.4-1.08-2.4-2.4-2.4Z"/><path class="cls-2" d="m825.84,584.95c-.72,0-1.31.58-1.31,1.31s.58,1.31,1.31,1.31,1.31-.58,1.31-1.31-.58-1.31-1.31-1.31Z"/><path class="cls-2" d="m1196,363.91c-.14,0-.25.11-.25.25s.11.25.25.25.25-.11.25-.25-.11-.25-.25-.25Z"/><circle class="cls-2" cx="1166.39" cy="378.96" r="1.49"/><circle class="cls-2" cx="1136.78" cy="393.77" r="2.19"/><path class="cls-2" d="m1107.17,406.02c-1.41,0-2.56,1.14-2.56,2.56s1.14,2.56,2.56,2.56,2.56-1.14,2.56-2.56-1.14-2.56-2.56-2.56Z"/><circle class="cls-2" cx="1077.55" cy="423.38" r="2.32"/><path class="cls-2" d="m1047.94,439.84c.91,0,1.65-.74,1.65-1.65s-.74-1.65-1.65-1.65-1.65.74-1.65,1.65.74,1.65,1.65,1.65Z"/><path class="cls-2" d="m1018.33,451.64c-.75,0-1.35.61-1.35,1.35s.61,1.35,1.35,1.35,1.35-.61,1.35-1.35-.61-1.35-1.35-1.35Z"/><path class="cls-2" d="m988.71,466.04c-.97,0-1.76.79-1.76,1.76s.79,1.76,1.76,1.76,1.76-.79,1.76-1.76-.79-1.76-1.76-1.76Z"/><path class="cls-2" d="m959.1,480.07c-1.4,0-2.53,1.13-2.53,2.54s1.13,2.53,2.53,2.53,2.53-1.13,2.53-2.53-1.13-2.54-2.53-2.54Z"/><path class="cls-2" d="m932.65,497.42c0-1.74-1.41-3.16-3.16-3.16s-3.16,1.41-3.16,3.16,1.41,3.16,3.16,3.16,3.16-1.41,3.16-3.16Z"/><path class="cls-2" d="m899.88,508.69c-1.95,0-3.53,1.58-3.53,3.53s1.58,3.53,3.53,3.53,3.53-1.58,3.53-3.53-1.58-3.53-3.53-3.53Z"/><circle class="cls-2" cx="870.26" cy="527.03" r="3.78"/><path class="cls-2" d="m840.65,538.13c-2.05,0-3.71,1.66-3.71,3.71s1.66,3.71,3.71,3.71,3.71-1.66,3.71-3.71-1.66-3.71-3.71-3.71Z"/><path class="cls-2" d="m811.04,553.29c-1.85,0-3.35,1.5-3.35,3.35s1.5,3.35,3.35,3.35,3.35-1.5,3.35-3.35-1.5-3.35-3.35-3.35Z"/><path class="cls-2" d="m781.42,568.73c-1.5,0-2.72,1.22-2.72,2.72s1.22,2.72,2.72,2.72,2.72-1.22,2.72-2.72-1.22-2.72-2.72-2.72Z"/><path class="cls-2" d="m751.81,584.5c-.97,0-1.75.79-1.75,1.75s.79,1.75,1.75,1.75,1.75-.79,1.75-1.75-.79-1.75-1.75-1.75Z"/><path class="cls-2" d="m1196,326.88c-.14,0-.26.12-.26.26s.12.26.26.26.26-.12.26-.26-.12-.26-.26-.26Z"/><path class="cls-2" d="m1167.21,340.14c-.77,0-1.4.63-1.4,1.4s.63,1.4,1.4,1.4,1.4-.63,1.4-1.4-.63-1.4-1.4-1.4Z"/><circle class="cls-2" cx="1138.42" cy="355.93" r="2.13"/><path class="cls-2" d="m1109.63,367.76c-1.42,0-2.56,1.15-2.56,2.56s1.15,2.56,2.56,2.56,2.56-1.15,2.56-2.56-1.15-2.56-2.56-2.56Z"/><path class="cls-2" d="m1080.84,381.98c-1.52,0-2.74,1.23-2.74,2.75s1.23,2.74,2.74,2.74,2.74-1.23,2.74-2.74-1.23-2.75-2.74-2.75Z"/><path class="cls-2" d="m1052.05,396.71c-1.33,0-2.41,1.08-2.41,2.41s1.08,2.41,2.41,2.41,2.41-1.08,2.41-2.41-1.08-2.41-2.41-2.41Z"/><path class="cls-2" d="m1021.4,413.51c0,1.03.83,1.86,1.86,1.86s1.86-.83,1.86-1.86-.83-1.86-1.86-1.86-1.86.83-1.86,1.86Z"/><circle class="cls-2" cx="994.47" cy="427.91" r="1.59"/><path class="cls-2" d="m965.68,440.49c-1,0-1.81.81-1.81,1.81s.81,1.81,1.81,1.81,1.81-.81,1.81-1.81-.81-1.81-1.81-1.81Z"/><path class="cls-2" d="m936.89,454.28c-1.34,0-2.42,1.08-2.42,2.42s1.08,2.42,2.42,2.42,2.42-1.08,2.42-2.42-1.08-2.42-2.42-2.42Z"/><path class="cls-2" d="m908.1,467.98c-1.72,0-3.12,1.4-3.12,3.12s1.4,3.12,3.12,3.12,3.12-1.4,3.12-3.12-1.4-3.12-3.12-3.12Z"/><path class="cls-2" d="m879.31,481.89c-1.99,0-3.6,1.61-3.6,3.6s1.61,3.6,3.6,3.6,3.6-1.61,3.6-3.6-1.61-3.6-3.6-3.6Z"/><path class="cls-2" d="m850.52,495.94c-2.18,0-3.95,1.77-3.95,3.95s1.77,3.95,3.95,3.95,3.95-1.77,3.95-3.95-1.77-3.95-3.95-3.95Z"/><path class="cls-2" d="m825.94,514.28c0-2.33-1.89-4.21-4.21-4.21s-4.21,1.89-4.21,4.21,1.89,4.21,4.21,4.21,4.21-1.89,4.21-4.21Z"/><path class="cls-2" d="m792.94,524.45c-2.33,0-4.23,1.89-4.23,4.23s1.89,4.23,4.23,4.23,4.23-1.89,4.23-4.23-1.89-4.23-4.23-4.23Z"/><path class="cls-2" d="m764.15,539.02c-2.24,0-4.05,1.81-4.05,4.05s1.81,4.05,4.05,4.05,4.05-1.81,4.05-4.05-1.81-4.05-4.05-4.05Z"/><circle class="cls-2" cx="735.36" cy="557.46" r="3.69"/><path class="cls-2" d="m706.57,568.74c-1.72,0-3.12,1.4-3.12,3.12s1.4,3.12,3.12,3.12,3.12-1.4,3.12-3.12-1.4-3.12-3.12-3.12Z"/><path class="cls-2" d="m677.78,583.98c-1.25,0-2.27,1.02-2.27,2.27s1.02,2.27,2.27,2.27,2.27-1.02,2.27-2.27-1.02-2.27-2.27-2.27Z"/><path class="cls-2" d="m1196,290.38c.14,0,.26-.12.26-.26s-.12-.26-.26-.26-.26.12-.26.26.12.26.26.26Z"/><path class="cls-2" d="m1163.1,305.14c-.79,0-1.43.64-1.43,1.43s.64,1.43,1.43,1.43,1.43-.64,1.43-1.43-.64-1.43-1.43-1.43Z"/><path class="cls-2" d="m1130.2,325.23c1.21,0,2.2-.98,2.2-2.2s-.98-2.2-2.2-2.2-2.2.98-2.2,2.2.98,2.2,2.2,2.2Z"/><path class="cls-2" d="m1097.29,336.82c-1.47,0-2.66,1.19-2.66,2.66s1.19,2.66,2.66,2.66,2.66-1.19,2.66-2.66-1.19-2.66-2.66-2.66Z"/><path class="cls-2" d="m1064.39,353.05c-1.59,0-2.88,1.29-2.88,2.88s1.29,2.88,2.88,2.88,2.88-1.29,2.88-2.88-1.29-2.88-2.88-2.88Z"/><path class="cls-2" d="m1031.49,369.81c-1.42,0-2.57,1.15-2.57,2.57s1.15,2.57,2.57,2.57,2.57-1.15,2.57-2.57-1.15-2.57-2.57-2.57Z"/><circle class="cls-2" cx="998.58" cy="388.83" r="2.05"/><path class="cls-2" d="m965.68,403.47c-1,0-1.81.81-1.81,1.81s.81,1.81,1.81,1.81,1.81-.81,1.81-1.81-.81-1.81-1.81-1.81Z"/><path class="cls-2" d="m932.78,419.67c-1.14,0-2.07.93-2.07,2.07s.93,2.07,2.07,2.07,2.07-.93,2.07-2.07-.93-2.07-2.07-2.07Z"/><path class="cls-2" d="m899.88,435.48c-1.5,0-2.71,1.22-2.71,2.71s1.22,2.71,2.71,2.71,2.71-1.21,2.71-2.71-1.22-2.71-2.71-2.71Z"/><path class="cls-2" d="m870.42,454.64c0-1.9-1.54-3.44-3.44-3.44s-3.44,1.54-3.44,3.44,1.54,3.44,3.44,3.44,3.44-1.54,3.44-3.44Z"/><path class="cls-2" d="m834.07,467.13c-2.19,0-3.96,1.77-3.96,3.96s1.77,3.96,3.96,3.96,3.96-1.77,3.96-3.96-1.77-3.96-3.96-3.96Z"/><path class="cls-2" d="m801.17,483.2c-2.4,0-4.34,1.94-4.34,4.34s1.94,4.34,4.34,4.34,4.34-1.94,4.34-4.34-1.94-4.34-4.34-4.34Z"/><circle class="cls-2" cx="768.26" cy="504" r="4.64" transform="translate(8.63 1020.91) rotate(-67.5)"/><circle class="cls-2" cx="735.36" cy="520.45" r="4.68"/><path class="cls-2" d="m706.99,536.9c0-2.51-2.03-4.54-4.54-4.54s-4.54,2.03-4.54,4.54,2.03,4.54,4.54,4.54,4.54-2.03,4.54-4.54Z"/><path class="cls-2" d="m669.55,549.14c-2.33,0-4.21,1.89-4.21,4.21s1.89,4.21,4.21,4.21,4.21-1.89,4.21-4.21-1.89-4.21-4.21-4.21Z"/><path class="cls-2" d="m636.65,566.13c-2.03,0-3.67,1.64-3.67,3.67s1.64,3.67,3.67,3.67,3.67-1.64,3.67-3.67-1.64-3.67-3.67-3.67Z"/><path class="cls-2" d="m603.75,583.4c-1.57,0-2.85,1.28-2.85,2.85s1.28,2.85,2.85,2.85,2.85-1.28,2.85-2.85-1.28-2.85-2.85-2.85Z"/><path class="cls-2" d="m1196,253.36c.14,0,.25-.11.25-.25s-.11-.25-.25-.25-.25.11-.25.25.11.25.25.25Z"/><path class="cls-2" d="m1165.57,268.97c0-.71-.58-1.29-1.29-1.29s-1.29.58-1.29,1.29.58,1.29,1.29,1.29,1.29-.58,1.29-1.29Z"/><path class="cls-2" d="m1132.55,282.82c-1.11,0-2.02.9-2.02,2.02s.9,2.02,2.02,2.02,2.02-.9,2.02-2.02-.9-2.02-2.02-2.02Z"/><circle class="cls-2" cx="1100.82" cy="300.7" r="2.53"/><path class="cls-2" d="m1071.95,316.57c0-1.58-1.28-2.86-2.86-2.86s-2.86,1.28-2.86,2.86,1.28,2.86,2.86,2.86,2.86-1.28,2.86-2.86Z"/><path class="cls-2" d="m1037.36,329.48c-1.63,0-2.95,1.32-2.95,2.95s1.32,2.95,2.95,2.95,2.95-1.32,2.95-2.95-1.32-2.95-2.95-2.95Z"/><path class="cls-2" d="m1005.64,345.65c-1.46,0-2.64,1.18-2.64,2.64s1.18,2.64,2.64,2.64,2.64-1.18,2.64-2.64-1.18-2.64-2.64-2.64Z"/><path class="cls-2" d="m973.91,361.92c-1.24,0-2.24,1-2.24,2.24s1,2.24,2.24,2.24,2.24-1,2.24-2.24-1-2.24-2.24-2.24Z"/><path class="cls-2" d="m942.18,377.98c-1.13,0-2.04.91-2.04,2.04s.91,2.04,2.04,2.04,2.04-.91,2.04-2.04-.91-2.04-2.04-2.04Z"/><path class="cls-2" d="m910.45,393.69c-1.21,0-2.2.99-2.2,2.2s.98,2.2,2.2,2.2,2.2-.98,2.2-2.2-.98-2.2-2.2-2.2Z"/><path class="cls-2" d="m876.02,411.75c0,1.49,1.21,2.7,2.7,2.7s2.7-1.21,2.7-2.7-1.21-2.7-2.7-2.7-2.7,1.21-2.7,2.7Z"/><path class="cls-2" d="m850.34,427.61c0-1.85-1.5-3.34-3.34-3.34s-3.34,1.5-3.34,3.34,1.5,3.34,3.34,3.34,3.34-1.5,3.34-3.34Z"/><path class="cls-2" d="m819.19,443.48c0-2.17-1.76-3.92-3.92-3.92s-3.92,1.76-3.92,3.92,1.76,3.92,3.92,3.92,3.92-1.75,3.92-3.92Z"/><path class="cls-2" d="m783.54,454.98c-2.41,0-4.36,1.95-4.36,4.36s1.95,4.36,4.36,4.36,4.36-1.95,4.36-4.36-1.95-4.36-4.36-4.36Z"/><circle class="cls-2" cx="751.81" cy="475.21" r="4.71"/><path class="cls-2" d="m720.08,486.06c-2.76,0-5.01,2.24-5.01,5.01s2.24,5.01,5.01,5.01,5.01-2.24,5.01-5.01-2.24-5.01-5.01-5.01Z"/><circle class="cls-2" cx="688.35" cy="506.93" r="5.12"/><path class="cls-2" d="m656.63,517.72c-2.81,0-5.08,2.27-5.08,5.08s2.27,5.08,5.08,5.08,5.08-2.28,5.08-5.08-2.27-5.08-5.08-5.08Z"/><circle class="cls-2" cx="624.9" cy="538.66" r="4.89" transform="translate(-17.58 21.09) rotate(-1.91)"/><path class="cls-2" d="m593.17,549.92c-2.54,0-4.6,2.06-4.6,4.6s2.06,4.6,4.6,4.6,4.6-2.06,4.6-4.6-2.06-4.6-4.6-4.6Z"/><path class="cls-2" d="m561.44,566.22c-2.3,0-4.17,1.87-4.17,4.17s1.87,4.17,4.17,4.17,4.17-1.87,4.17-4.17-1.87-4.17-4.17-4.17Z"/><path class="cls-2" d="m529.71,582.76c-1.93,0-3.5,1.57-3.5,3.5s1.57,3.5,3.5,3.5,3.5-1.57,3.5-3.5-1.57-3.5-3.5-3.5Z"/><path class="cls-2" d="m1196,216.33c.13,0,.24-.11.24-.24s-.11-.24-.24-.24-.24.11-.24.24.11.24.24.24Z"/><circle class="cls-2" cx="1165.16" cy="231.52" r="1.14"/><path class="cls-2" d="m1132.51,246.94c0,.99.8,1.8,1.8,1.8s1.8-.8,1.8-1.8-.8-1.8-1.8-1.8-1.8.8-1.8,1.8Z"/><path class="cls-2" d="m1103.46,264.71c1.29,0,2.34-1.05,2.34-2.34s-1.05-2.34-2.34-2.34-2.34,1.05-2.34,2.34,1.05,2.34,2.34,2.34Z"/><path class="cls-2" d="m1072.62,275.07c-1.5,0-2.71,1.22-2.71,2.72s1.22,2.71,2.71,2.71,2.71-1.22,2.71-2.71-1.22-2.72-2.71-2.72Z"/><path class="cls-2" d="m1041.77,290.25c-1.64,0-2.96,1.33-2.96,2.96s1.33,2.96,2.96,2.96,2.96-1.33,2.96-2.96-1.33-2.96-2.96-2.96Z"/><path class="cls-2" d="m1010.92,305.66c-1.64,0-2.98,1.33-2.98,2.98s1.33,2.98,2.98,2.98,2.98-1.33,2.98-2.98-1.33-2.98-2.98-2.98Z"/><path class="cls-2" d="m980.08,321.34c-1.5,0-2.71,1.22-2.71,2.71s1.21,2.71,2.71,2.71,2.71-1.21,2.71-2.71-1.21-2.71-2.71-2.71Z"/><circle class="cls-2" cx="949.23" cy="339.48" r="2.42"/><path class="cls-2" d="m918.38,357.17c1.25,0,2.26-1.01,2.26-2.26s-1.01-2.26-2.26-2.26-2.26,1.01-2.26,2.26,1.01,2.26,2.26,2.26Z"/><circle class="cls-2" cx="887.54" cy="370.33" r="2.4"/><path class="cls-2" d="m856.69,383c-1.52,0-2.75,1.23-2.75,2.75s1.23,2.75,2.75,2.75,2.75-1.23,2.75-2.75-1.23-2.75-2.75-2.75Z"/><path class="cls-2" d="m825.84,397.88c-1.82,0-3.29,1.47-3.29,3.29s1.47,3.29,3.29,3.29,3.29-1.47,3.29-3.29-1.47-3.29-3.29-3.29Z"/><path class="cls-2" d="m791.11,416.6c0,2.15,1.74,3.88,3.88,3.88s3.88-1.74,3.88-3.88-1.74-3.88-3.88-3.88-3.88,1.74-3.88,3.88Z"/><circle class="cls-2" cx="764.15" cy="432.02" r="4.35"/><path class="cls-2" d="m738.03,447.44c0-2.61-2.11-4.72-4.72-4.72s-4.72,2.11-4.72,4.72,2.11,4.72,4.72,4.72,4.72-2.12,4.72-4.72Z"/><path class="cls-2" d="m702.46,467.92c2.79,0,5.05-2.26,5.05-5.05s-2.26-5.05-5.05-5.05-5.05,2.26-5.05,5.05,2.26,5.05,5.05,5.05Z"/><path class="cls-2" d="m671.61,472.94c-2.95,0-5.35,2.4-5.35,5.35s2.39,5.35,5.35,5.35,5.35-2.39,5.35-5.35-2.39-5.35-5.35-5.35Z"/><circle class="cls-2" cx="640.76" cy="493.71" r="5.52" transform="translate(112.37 1106.19) rotate(-86.83)"/><path class="cls-2" d="m609.92,503.58c-3.07,0-5.55,2.49-5.55,5.55s2.49,5.55,5.55,5.55,5.55-2.49,5.55-5.55-2.49-5.55-5.55-5.55Z"/><path class="cls-2" d="m579.07,519.1c-3.02,0-5.46,2.45-5.46,5.46s2.45,5.46,5.46,5.46,5.46-2.44,5.46-5.46-2.45-5.46-5.46-5.46Z"/><circle class="cls-2" cx="548.22" cy="539.98" r="5.34"/><path class="cls-2" d="m517.38,550.33c-2.81,0-5.08,2.27-5.08,5.08s2.28,5.08,5.08,5.08,5.08-2.27,5.08-5.08-2.27-5.08-5.08-5.08Z"/><path class="cls-2" d="m486.53,566.09c-2.62,0-4.74,2.12-4.74,4.74s2.12,4.74,4.74,4.74,4.74-2.12,4.74-4.74-2.12-4.74-4.74-4.74Z"/><path class="cls-2" d="m455.68,582.04c-2.33,0-4.21,1.88-4.21,4.21s1.88,4.21,4.21,4.21,4.21-1.89,4.21-4.21-1.88-4.21-4.21-4.21Z"/><path class="cls-2" d="m1196,179.29c.12,0,.22-.1.22-.22s-.1-.22-.22-.22-.22.1-.22.22.1.22.22.22Z"/><path class="cls-2" d="m1163.16,196.04c0-.6-.49-1.09-1.09-1.09s-1.09.49-1.09,1.09.49,1.09,1.09,1.09,1.09-.49,1.09-1.09Z"/><path class="cls-2" d="m1129.87,213.01c0-.96-.78-1.73-1.73-1.73s-1.73.78-1.73,1.73.78,1.73,1.73,1.73,1.73-.78,1.73-1.73Z"/><path class="cls-2" d="m1096.49,229.97c0-1.26-1.02-2.28-2.28-2.28s-2.28,1.02-2.28,2.28,1.02,2.28,2.28,2.28,2.28-1.02,2.28-2.28Z"/><path class="cls-2" d="m1062.94,246.94c0-1.47-1.19-2.66-2.66-2.66s-2.66,1.19-2.66,2.66,1.19,2.66,2.66,2.66,2.66-1.19,2.66-2.66Z"/><circle class="cls-2" cx="1026.35" cy="263.91" r="2.94"/><path class="cls-2" d="m995.41,280.87c0-1.66-1.34-3-3-3s-3,1.34-3,3,1.34,3,3,3,3-1.34,3-3Z"/><path class="cls-2" d="m961.29,297.84c0-1.55-1.26-2.81-2.81-2.81s-2.81,1.26-2.81,2.81,1.26,2.81,2.81,2.81,2.81-1.26,2.81-2.81Z"/><path class="cls-2" d="m927.14,314.8c0-1.43-1.16-2.59-2.59-2.59s-2.59,1.16-2.59,2.59,1.16,2.59,2.59,2.59,2.59-1.16,2.59-2.59Z"/><path class="cls-2" d="m890.62,329.28c-1.38,0-2.49,1.12-2.49,2.49s1.12,2.49,2.49,2.49,2.49-1.12,2.49-2.49-1.12-2.49-2.49-2.49Z"/><path class="cls-2" d="m856.69,351.42c1.48,0,2.69-1.2,2.69-2.69s-1.2-2.69-2.69-2.69-2.69,1.2-2.69,2.69,1.2,2.69,2.69,2.69Z"/><path class="cls-2" d="m822.76,368.74c1.68,0,3.04-1.36,3.04-3.04s-1.36-3.04-3.04-3.04-3.04,1.36-3.04,3.04,1.36,3.04,3.04,3.04Z"/><path class="cls-2" d="m788.83,386.24c1.97,0,3.57-1.6,3.57-3.57s-1.6-3.57-3.57-3.57-3.57,1.6-3.57,3.57,1.6,3.57,3.57,3.57Z"/><circle class="cls-2" cx="754.9" cy="399.63" r="4.16"/><path class="cls-2" d="m720.96,411.96c-2.56,0-4.63,2.07-4.63,4.63s2.07,4.63,4.63,4.63,4.63-2.07,4.63-4.63-2.07-4.63-4.63-4.63Z"/><path class="cls-2" d="m687.03,438.58c2.77,0,5.02-2.25,5.02-5.02s-2.25-5.02-5.02-5.02-5.02,2.25-5.02,5.02,2.25,5.02,5.02,5.02Z"/><circle class="cls-2" cx="653.1" cy="450.53" r="5.37"/><path class="cls-2" d="m624.86,467.49c0-3.14-2.55-5.69-5.69-5.69s-5.69,2.55-5.69,5.69,2.55,5.69,5.69,5.69,5.69-2.55,5.69-5.69Z"/><path class="cls-2" d="m591.13,484.46c0-3.25-2.64-5.89-5.89-5.89s-5.89,2.64-5.89,5.89,2.64,5.89,5.89,5.89,5.89-2.64,5.89-5.89Z"/><path class="cls-2" d="m551.31,495.45c-3.3,0-5.97,2.67-5.97,5.97s2.67,5.97,5.97,5.97,5.97-2.67,5.97-5.97-2.67-5.97-5.97-5.97Z"/><path class="cls-2" d="m517.38,512.46c-3.28,0-5.94,2.66-5.94,5.94s2.66,5.94,5.94,5.94,5.93-2.66,5.93-5.94-2.66-5.94-5.93-5.94Z"/><path class="cls-2" d="m489.32,535.36c0-3.24-2.63-5.87-5.87-5.87s-5.87,2.63-5.87,5.87,2.63,5.87,5.87,5.87,5.87-2.63,5.87-5.87Z"/><circle class="cls-2" cx="449.51" cy="552.32" r="5.69"/><circle class="cls-2" cx="415.58" cy="569.29" r="5.42" transform="translate(-39.31 30.89) rotate(-4.07)"/><path class="cls-2" d="m381.65,581.27c-2.76,0-4.99,2.23-4.99,4.99s2.23,4.99,4.99,4.99,4.99-2.23,4.99-4.99-2.23-4.99-4.99-4.99Z"/><path class="cls-2" d="m1196,142.25c.1,0,.19-.08.19-.19s-.08-.19-.19-.19-.19.08-.19.19.08.19.19.19Z"/><path class="cls-2" d="m1162.18,158.51c0,.51.41.92.92.92s.92-.41.92-.92-.41-.92-.92-.92-.92.41-.92.92Z"/><circle class="cls-2" cx="1130.2" cy="174.96" r="1.5"/><path class="cls-2" d="m1095.28,191.42c0,1.11.9,2.01,2.01,2.01s2.01-.9,2.01-2.01-.9-2.01-2.01-2.01-2.01.9-2.01,2.01Z"/><path class="cls-2" d="m1062.03,207.87c0,1.3,1.06,2.36,2.36,2.36s2.36-1.06,2.36-2.36-1.06-2.36-2.36-2.36-2.36,1.06-2.36,2.36Z"/><circle class="cls-2" cx="1031.49" cy="224.32" r="2.69"/><path class="cls-2" d="m998.58,237.88c-1.6,0-2.89,1.29-2.89,2.89s1.29,2.89,2.89,2.89,2.89-1.29,2.89-2.89-1.29-2.89-2.89-2.89Z"/><path class="cls-2" d="m965.68,254.26c-1.64,0-2.97,1.33-2.97,2.97s1.33,2.97,2.97,2.97,2.97-1.33,2.97-2.97-1.33-2.97-2.97-2.97Z"/><circle class="cls-2" cx="932.78" cy="273.67" r="2.86"/><circle class="cls-2" cx="899.88" cy="290.13" r="2.75"/><circle class="cls-2" cx="866.97" cy="306.58" r="2.76"/><path class="cls-2" d="m831.19,323.03c0,1.59,1.29,2.88,2.88,2.88s2.88-1.29,2.88-2.88-1.29-2.88-2.88-2.88-2.88,1.29-2.88,2.88Z"/><path class="cls-2" d="m801.17,342.67c1.76,0,3.19-1.43,3.19-3.19s-1.43-3.19-3.19-3.19-3.19,1.43-3.19,3.19,1.43,3.19,3.19,3.19Z"/><path class="cls-2" d="m764.64,355.93c0,2,1.62,3.62,3.62,3.62s3.62-1.62,3.62-3.62-1.62-3.62-3.62-3.62-3.62,1.62-3.62,3.62Z"/><path class="cls-2" d="m735.36,368.28c-2.27,0-4.11,1.84-4.11,4.11s1.84,4.11,4.11,4.11,4.11-1.84,4.11-4.11-1.84-4.11-4.11-4.11Z"/><circle class="cls-2" cx="702.46" cy="388.83" r="4.59"/><circle class="cls-2" cx="669.55" cy="405.29" r="5" transform="translate(38.89 868.78) rotate(-67.5)"/><path class="cls-2" d="m641.99,421.74c0-2.95-2.39-5.34-5.34-5.34s-5.34,2.39-5.34,5.34,2.39,5.34,5.34,5.34,5.34-2.39,5.34-5.34Z"/><path class="cls-2" d="m609.41,438.19c0-3.13-2.53-5.66-5.66-5.66s-5.66,2.53-5.66,5.66,2.53,5.66,5.66,5.66,5.66-2.53,5.66-5.66Z"/><path class="cls-2" d="m576.82,454.64c0-3.3-2.67-5.97-5.97-5.97s-5.97,2.67-5.97,5.97,2.67,5.97,5.97,5.97,5.97-2.67,5.97-5.97Z"/><path class="cls-2" d="m537.94,464.9c-3.42,0-6.2,2.77-6.2,6.2s2.77,6.2,6.2,6.2,6.2-2.77,6.2-6.2-2.77-6.2-6.2-6.2Z"/><path class="cls-2" d="m505.04,481.22c-3.49,0-6.33,2.83-6.33,6.33s2.83,6.33,6.33,6.33,6.33-2.83,6.33-6.33-2.83-6.33-6.33-6.33Z"/><path class="cls-2" d="m472.13,497.6c-3.53,0-6.4,2.87-6.4,6.4s2.87,6.4,6.4,6.4,6.4-2.87,6.4-6.4-2.87-6.4-6.4-6.4Z"/><circle class="cls-2" cx="439.23" cy="520.45" r="6.41" transform="translate(-35.79 32.45) rotate(-4.07)"/><path class="cls-2" d="m412.73,536.9c0-3.54-2.87-6.4-6.4-6.4s-6.4,2.87-6.4,6.4,2.87,6.4,6.4,6.4,6.4-2.87,6.4-6.4Z"/><path class="cls-2" d="m379.71,553.35c0-3.47-2.81-6.28-6.28-6.28s-6.28,2.81-6.28,6.28,2.81,6.28,6.28,6.28,6.28-2.81,6.28-6.28Z"/><circle class="cls-2" cx="340.52" cy="569.8" r="6.1"/><path class="cls-2" d="m307.62,580.42c-3.22,0-5.83,2.61-5.83,5.83s2.61,5.83,5.83,5.83,5.83-2.61,5.83-5.83-2.61-5.83-5.83-5.83Z"/><path class="cls-2" d="m1196,105.2c.08,0,.15-.07.15-.15s-.07-.15-.15-.15-.15.07-.15.15.07.15.15.15Z"/><path class="cls-2" d="m1163.92,121.84c.42,0,.76-.34.76-.76s-.34-.76-.76-.76-.76.34-.76.76.34.76.76.76Z"/><path class="cls-2" d="m1131.84,138.39c.7,0,1.26-.57,1.26-1.26s-.57-1.26-1.26-1.26-1.26.57-1.26,1.26.57,1.26,1.26,1.26Z"/><path class="cls-2" d="m1099.76,154.87c.94,0,1.7-.76,1.7-1.71s-.76-1.7-1.7-1.7-1.7.76-1.7,1.7.76,1.71,1.7,1.71Z"/><path class="cls-2" d="m1067.68,171.27c1.14,0,2.07-.93,2.07-2.07s-.93-2.07-2.07-2.07-2.07.93-2.07,2.07.93,2.07,2.07,2.07Z"/><path class="cls-2" d="m1035.6,187.62c1.31,0,2.38-1.06,2.38-2.38s-1.06-2.38-2.38-2.38-2.38,1.06-2.38,2.38,1.06,2.38,2.38,2.38Z"/><path class="cls-2" d="m1006.21,201.29c0-1.48-1.2-2.69-2.69-2.69s-2.69,1.2-2.69,2.69,1.2,2.69,2.69,2.69,2.69-1.2,2.69-2.69Z"/><path class="cls-2" d="m974.27,217.33c0-1.57-1.27-2.83-2.83-2.83s-2.83,1.27-2.83,2.83,1.27,2.83,2.83,2.83,2.83-1.27,2.83-2.83Z"/><path class="cls-2" d="m942.28,233.37c0-1.61-1.31-2.92-2.92-2.92s-2.92,1.31-2.92,2.92,1.31,2.92,2.92,2.92,2.92-1.31,2.92-2.92Z"/><path class="cls-2" d="m907.28,252.32c1.61,0,2.91-1.3,2.91-2.91s-1.3-2.91-2.91-2.91-2.91,1.3-2.91,2.91,1.3,2.91,2.91,2.91Z"/><path class="cls-2" d="m878.09,265.45c0-1.6-1.3-2.9-2.9-2.9s-2.9,1.3-2.9,2.9,1.3,2.9,2.9,2.9,2.9-1.3,2.9-2.9Z"/><path class="cls-2" d="m840.15,281.49c0,1.64,1.33,2.97,2.97,2.97s2.97-1.33,2.97-2.97-1.33-2.97-2.97-2.97-2.97,1.33-2.97,2.97Z"/><path class="cls-2" d="m811.04,300.62c1.71,0,3.09-1.38,3.09-3.09s-1.38-3.09-3.09-3.09-3.09,1.38-3.09,3.09,1.38,3.09,3.09,3.09Z"/><path class="cls-2" d="m782.34,313.57c0-1.87-1.51-3.38-3.38-3.38s-3.38,1.51-3.38,3.38,1.51,3.38,3.38,3.38,3.38-1.51,3.38-3.38Z"/><circle class="cls-2" cx="746.88" cy="329.61" r="3.72"/><path class="cls-2" d="m718.92,345.65c0-2.28-1.85-4.13-4.13-4.13s-4.13,1.85-4.13,4.13,1.85,4.13,4.13,4.13,4.13-1.85,4.13-4.13Z"/><circle class="cls-2" cx="682.71" cy="361.69" r="4.57"/><path class="cls-2" d="m655.59,377.73c0-2.74-2.22-4.96-4.96-4.96s-4.96,2.22-4.96,4.96,2.22,4.96,4.96,4.96,4.96-2.22,4.96-4.96Z"/><path class="cls-2" d="m613.23,393.77c0,2.94,2.38,5.32,5.32,5.32s5.32-2.38,5.32-5.32-2.38-5.32-5.32-5.32-5.32,2.38-5.32,5.32Z"/><path class="cls-2" d="m586.47,415.44c3.11,0,5.63-2.52,5.63-5.63s-2.52-5.63-5.63-5.63-5.63,2.52-5.63,5.63,2.52,5.63,5.63,5.63Z"/><circle class="cls-2" cx="554.39" cy="425.85" r="5.93"/><path class="cls-2" d="m522.31,435.66c-3.44,0-6.23,2.79-6.23,6.23s2.79,6.23,6.23,6.23,6.23-2.79,6.23-6.23-2.79-6.23-6.23-6.23Z"/><path class="cls-2" d="m490.23,451.51c-3.54,0-6.42,2.87-6.42,6.42s2.87,6.42,6.42,6.42,6.42-2.87,6.42-6.42-2.87-6.42-6.42-6.42Z"/><path class="cls-2" d="m458.15,467.37c-3.65,0-6.61,2.96-6.61,6.61s2.96,6.61,6.61,6.61,6.61-2.96,6.61-6.61-2.96-6.61-6.61-6.61Z"/><circle class="cls-2" cx="426.07" cy="490.01" r="6.79"/><circle class="cls-2" cx="393.99" cy="506.05" r="6.87" transform="translate(-75.97 69.64) rotate(-9.22)"/><path class="cls-2" d="m361.91,515.15c-3.83,0-6.94,3.11-6.94,6.94s3.11,6.94,6.94,6.94,6.94-3.11,6.94-6.94-3.11-6.94-6.94-6.94Z"/><circle class="cls-2" cx="329.83" cy="538.13" r="6.97"/><circle class="cls-2" cx="297.75" cy="554.17" r="6.95"/><circle class="cls-2" cx="265.67" cy="570.21" r="6.87" transform="translate(-318.37 803.94) rotate(-86.83)"/><path class="cls-2" d="m233.59,579.51c-3.72,0-6.74,3.02-6.74,6.74s3.02,6.74,6.74,6.74,6.74-3.02,6.74-6.74-3.02-6.74-6.74-6.74Z"/><path class="cls-2" d="m1196,68.14c.06,0,.11-.05.11-.11s-.05-.11-.11-.11-.11.05-.11.11.05.11.11.11Z"/><path class="cls-2" d="m1161.46,85.93c.35,0,.63-.28.63-.63s-.28-.63-.63-.63-.63.28-.63.63.28.63.63.63Z"/><path class="cls-2" d="m1128,102.58c0-.61-.49-1.1-1.1-1.1s-1.1.49-1.1,1.1.49,1.1,1.1,1.1,1.1-.49,1.1-1.1Z"/><path class="cls-2" d="m1093.87,119.85c0-.83-.68-1.51-1.51-1.51s-1.51.68-1.51,1.51.68,1.51,1.51,1.51,1.51-.68,1.51-1.51Z"/><path class="cls-2" d="m1059.68,137.13c0-1.03-.84-1.86-1.87-1.86s-1.87.83-1.87,1.86.84,1.87,1.87,1.87,1.87-.83,1.87-1.87Z"/><path class="cls-2" d="m1023.26,156.58c1.21,0,2.18-.98,2.18-2.18s-.98-2.18-2.18-2.18-2.18.98-2.18,2.18.98,2.18,2.18,2.18Z"/><path class="cls-2" d="m991.21,171.67c0-1.38-1.12-2.5-2.5-2.5s-2.5,1.12-2.5,2.5,1.12,2.5,2.5,2.5,2.5-1.12,2.5-2.5Z"/><path class="cls-2" d="m956.87,188.95c0-1.49-1.21-2.7-2.7-2.7s-2.7,1.21-2.7,2.7,1.21,2.7,2.7,2.7,2.7-1.21,2.7-2.7Z"/><circle class="cls-2" cx="919.62" cy="206.22" r="2.86"/><path class="cls-2" d="m888.02,223.5c0-1.63-1.32-2.95-2.95-2.95s-2.95,1.32-2.95,2.95,1.32,2.95,2.95,2.95,2.95-1.32,2.95-2.95Z"/><path class="cls-2" d="m850.52,243.81c1.68,0,3.04-1.36,3.04-3.04s-1.36-3.04-3.04-3.04-3.04,1.36-3.04,3.04,1.36,3.04,3.04,3.04Z"/><path class="cls-2" d="m815.97,261.23c1.76,0,3.18-1.43,3.18-3.18s-1.43-3.18-3.18-3.18-3.18,1.43-3.18,3.18,1.43,3.18,3.18,3.18Z"/><path class="cls-2" d="m781.42,278.69c1.86,0,3.37-1.51,3.37-3.37s-1.51-3.37-3.37-3.37-3.37,1.51-3.37,3.37,1.51,3.37,3.37,3.37Z"/><circle class="cls-2" cx="746.88" cy="292.59" r="3.67"/><path class="cls-2" d="m712.33,313.88c2.22,0,4.01-1.8,4.01-4.01s-1.8-4.01-4.01-4.01-4.01,1.8-4.01,4.01,1.8,4.01,4.01,4.01Z"/><path class="cls-2" d="m677.78,331.54c2.43,0,4.4-1.97,4.4-4.4s-1.97-4.4-4.4-4.4-4.4,1.97-4.4,4.4,1.97,4.4,4.4,4.4Z"/><path class="cls-2" d="m643.23,339.63c-2.64,0-4.78,2.14-4.78,4.78s2.14,4.78,4.78,4.78,4.78-2.14,4.78-4.78-2.14-4.78-4.78-4.78Z"/><circle class="cls-2" cx="608.68" cy="361.69" r="5.16"/><circle class="cls-2" cx="574.13" cy="378.96" r="5.55" transform="translate(4.31 764.37) rotate(-67.5)"/><path class="cls-2" d="m539.59,402.1c3.24,0,5.86-2.62,5.86-5.86s-2.62-5.86-5.86-5.86-5.86,2.62-5.86,5.86,2.62,5.86,5.86,5.86Z"/><path class="cls-2" d="m505.04,419.68c3.41,0,6.17-2.76,6.17-6.17s-2.76-6.17-6.17-6.17-6.17,2.76-6.17,6.17,2.76,6.17,6.17,6.17Z"/><path class="cls-2" d="m470.49,437.27c3.58,0,6.48-2.9,6.48-6.48s-2.9-6.48-6.48-6.48-6.48,2.9-6.48,6.48,2.9,6.48,6.48,6.48Z"/><path class="cls-2" d="m435.94,441.35c-3.71,0-6.71,3.01-6.71,6.71s3.01,6.71,6.71,6.71,6.71-3.01,6.71-6.71-3.01-6.71-6.71-6.71Z"/><path class="cls-2" d="m401.39,472.28c3.84,0,6.95-3.11,6.95-6.95s-3.11-6.95-6.95-6.95-6.95,3.11-6.95,6.95,3.11,6.95,6.95,6.95Z"/><path class="cls-2" d="m359.67,482.61c0,3.96,3.21,7.18,7.18,7.18s7.18-3.21,7.18-7.18-3.21-7.18-7.18-7.18-7.18,3.21-7.18,7.18Z"/><circle class="cls-2" cx="332.3" cy="499.88" r="7.3"/><path class="cls-2" d="m297.75,524.57c4.1,0,7.42-3.32,7.42-7.42s-3.32-7.42-7.42-7.42-7.42,3.32-7.42,7.42,3.32,7.42,7.42,7.42Z"/><path class="cls-2" d="m270.74,534.43c0-4.16-3.37-7.54-7.54-7.54s-7.54,3.37-7.54,7.54,3.37,7.54,7.54,7.54,7.54-3.37,7.54-7.54Z"/><path class="cls-2" d="m236.31,551.71c0-4.23-3.43-7.66-7.66-7.66s-7.66,3.43-7.66,7.66,3.43,7.66,7.66,7.66,7.66-3.43,7.66-7.66Z"/><path class="cls-2" d="m194.1,561.26c-4.26,0-7.72,3.45-7.72,7.72s3.45,7.72,7.72,7.72,7.72-3.45,7.72-7.72-3.45-7.72-7.72-7.72Z"/><path class="cls-2" d="m159.55,578.53c-4.26,0-7.72,3.46-7.72,7.72s3.46,7.72,7.72,7.72,7.72-3.46,7.72-7.72-3.46-7.72-7.72-7.72Z"/><path class="cls-2" d="m1196.06,31.01s-.03-.06-.06-.06-.06.03-.06.06.03.06.06.06.06-.03.06-.06Z"/><path class="cls-2" d="m1162.35,48.29c.25,0,.45-.2.45-.45s-.2-.45-.45-.45-.45.2-.45.45.2.45.45.45Z"/><path class="cls-2" d="m1128.7,65.48c.45,0,.82-.37.82-.82s-.37-.82-.82-.82-.82.37-.82.82.37.82.82.82Z"/><circle class="cls-2" cx="1095.05" cy="81.49" r="1.13"/><path class="cls-2" d="m1061.4,99.76c.8,0,1.45-.65,1.45-1.45s-.65-1.45-1.45-1.45-1.45.65-1.45,1.45.65,1.45,1.45,1.45Z"/><path class="cls-2" d="m1027.75,116.9c.97,0,1.76-.79,1.76-1.76s-.79-1.76-1.76-1.76-1.76.79-1.76,1.76.79,1.76,1.76,1.76Z"/><path class="cls-2" d="m994.1,134.04c1.15,0,2.07-.93,2.07-2.07s-.93-2.08-2.07-2.08-2.07.93-2.07,2.08.93,2.07,2.07,2.07Z"/><path class="cls-2" d="m960.45,146.44c-1.3,0-2.35,1.05-2.35,2.35s1.05,2.35,2.35,2.35,2.35-1.05,2.35-2.35-1.05-2.35-2.35-2.35Z"/><path class="cls-2" d="m926.8,168.18c1.42,0,2.56-1.15,2.56-2.56s-1.15-2.56-2.56-2.56-2.56,1.15-2.56,2.56,1.15,2.56,2.56,2.56Z"/><path class="cls-2" d="m893.14,179.67c-1.53,0-2.78,1.24-2.78,2.78s1.24,2.78,2.78,2.78,2.78-1.24,2.78-2.78-1.24-2.78-2.78-2.78Z"/><path class="cls-2" d="m859.49,196.28c-1.65,0-2.99,1.34-2.99,2.99s1.34,2.99,2.99,2.99,2.99-1.34,2.99-2.99-1.34-2.99-2.99-2.99Z"/><path class="cls-2" d="m825.84,219.29c1.77,0,3.2-1.43,3.2-3.2s-1.43-3.2-3.2-3.2-3.2,1.43-3.2,3.2,1.43,3.2,3.2,3.2Z"/><path class="cls-2" d="m792.19,229.51c-1.88,0-3.41,1.52-3.41,3.41s1.52,3.41,3.41,3.41,3.41-1.52,3.41-3.41-1.52-3.41-3.41-3.41Z"/><path class="cls-2" d="m758.54,253.36c2,0,3.61-1.62,3.61-3.61s-1.62-3.61-3.61-3.61-3.61,1.62-3.61,3.61,1.62,3.61,3.61,3.61Z"/><path class="cls-2" d="m724.89,262.67c-2.15,0-3.9,1.75-3.9,3.9s1.75,3.9,3.9,3.9,3.9-1.75,3.9-3.9-1.75-3.9-3.9-3.9Z"/><path class="cls-2" d="m691.24,279.19c-2.32,0-4.21,1.88-4.21,4.21s1.88,4.21,4.21,4.21,4.21-1.88,4.21-4.21-1.88-4.21-4.21-4.21Z"/><circle class="cls-2" cx="657.59" cy="300.22" r="4.52"/><path class="cls-2" d="m619.1,317.05c0,2.67,2.16,4.83,4.83,4.83s4.83-2.16,4.83-4.83-2.16-4.83-4.83-4.83-4.83,2.16-4.83,4.83Z"/><circle class="cls-2" cx="590.29" cy="333.87" r="5.16"/><path class="cls-2" d="m562.12,350.7c0-3.03-2.46-5.48-5.48-5.48s-5.48,2.46-5.48,5.48,2.46,5.48,5.48,5.48,5.48-2.46,5.48-5.48Z"/><path class="cls-2" d="m517.18,367.52c0,3.2,2.6,5.8,5.8,5.8s5.8-2.6,5.8-5.8-2.6-5.8-5.8-5.8-5.8,2.6-5.8,5.8Z"/><path class="cls-2" d="m489.33,390.42c3.35,0,6.07-2.72,6.07-6.07s-2.72-6.07-6.07-6.07-6.07,2.72-6.07,6.07,2.72,6.07,6.07,6.07Z"/><circle class="cls-2" cx="455.68" cy="401.17" r="6.34" transform="translate(11.56 815.11) rotate(-84.35)"/><path class="cls-2" d="m415.41,418c0,3.65,2.96,6.62,6.62,6.62s6.62-2.96,6.62-6.62-2.96-6.62-6.62-6.62-6.62,2.96-6.62,6.62Z"/><circle class="cls-2" cx="388.38" cy="434.82" r="6.89" transform="translate(-9.35 8.54) rotate(-1.24)"/><path class="cls-2" d="m361.89,451.65c0-3.96-3.21-7.16-7.16-7.16s-7.16,3.21-7.16,7.16,3.21,7.16,7.16,7.16,7.16-3.21,7.16-7.16Z"/><path class="cls-2" d="m328.51,468.48c0-4.11-3.33-7.43-7.43-7.43s-7.43,3.33-7.43,7.43,3.33,7.44,7.43,7.44,7.43-3.33,7.43-7.44Z"/><path class="cls-2" d="m295.09,485.3c0-4.23-3.43-7.66-7.66-7.66s-7.66,3.43-7.66,7.66,3.43,7.66,7.66,7.66,7.66-3.43,7.66-7.66Z"/><circle class="cls-2" cx="253.78" cy="502.13" r="7.86"/><circle class="cls-2" cx="220.13" cy="518.95" r="8.06"/><circle class="cls-2" cx="186.47" cy="535.78" r="8.26"/><path class="cls-2" d="m161.28,552.6c0-4.67-3.79-8.46-8.46-8.46s-8.46,3.79-8.46,8.46,3.79,8.46,8.46,8.46,8.46-3.79,8.46-8.46Z"/><circle class="cls-2" cx="119.17" cy="569.43" r="8.62" transform="translate(-25.68 5.99) rotate(-2.6)"/><path class="cls-2" d="m85.52,577.49c-4.84,0-8.76,3.92-8.76,8.76s3.92,8.76,8.76,8.76,8.76-3.92,8.76-8.76-3.92-8.76-8.76-8.76Z"/><path class="cls-2" d="m1124.21,29.29c-.33,0-.6.27-.6.6,0,.08.02.16.05.23.09.21.3.37.55.37.33,0,.6-.27.6-.6s-.27-.6-.6-.6Z"/><path class="cls-2" d="m978.84,101.68h0c0,.7.4,1.3.99,1.6.24.12.51.2.81.2h0c.99,0,1.79-.8,1.79-1.79h0c0-.48-.19-.92-.5-1.24,0,0-.01-.02-.02-.03-.02-.02-.04-.03-.06-.05-.32-.29-.74-.48-1.21-.48h0c-.99,0-1.79.8-1.79,1.79Z"/><path class="cls-2" d="m908.85,139.97h0c1.32,0,2.39-1.07,2.39-2.39,0-.33-.07-.65-.19-.93-.36-.86-1.21-1.46-2.2-1.46-1.32,0-2.39,1.07-2.39,2.39s1.07,2.39,2.39,2.39Z"/><path class="cls-2" d="m837.06,176.46h0c1.65,0,2.99-1.34,2.99-2.99s-1.34-2.99-2.99-2.99h0c-1.65,0-2.99,1.34-2.99,2.99s1.34,2.99,2.99,2.99Z"/><path class="cls-2" d="m797.94,192.08c.12.6.41,1.13.81,1.56.03.03.05.07.09.1.03.03.06.05.09.07.59.55,1.37.89,2.24.89h0c1.82,0,3.29-1.47,3.29-3.29,0-.45-.09-.89-.26-1.28-.03-.08-.08-.15-.12-.23-.55-1.05-1.64-1.78-2.91-1.78h0c-1.82,0-3.29,1.47-3.29,3.29,0,.23.02.45.07.66Z"/><path class="cls-2" d="m761.68,209.36c0,1.98,1.61,3.59,3.59,3.59h0c1.98,0,3.59-1.61,3.59-3.59s-1.61-3.59-3.59-3.59h0c-1.98,0-3.59,1.61-3.59,3.59Z"/><path class="cls-2" d="m725.49,227.31c0,.27.03.53.08.78.05.23.12.46.21.68,0,.02,0,.04.02.05.18.42.43.79.73,1.11.04.04.06.08.1.12.03.03.07.05.1.08.25.23.53.42.83.59.25.13.52.24.81.32.32.09.66.15,1.01.15h0c2.15,0,3.89-1.74,3.89-3.89,0-.27-.03-.53-.08-.78-.36-1.77-1.93-3.11-3.81-3.11-2.15,0-3.89,1.74-3.89,3.89Z"/><path class="cls-2" d="m626.23,279.69c-.04-.13-.07-.27-.12-.4-.57-1.34-1.74-2.35-3.17-2.74-.4-.11-.81-.18-1.24-.18h0c-2.64,0-4.79,2.14-4.79,4.79,0,.33.03.65.1.97.36,1.77,1.71,3.17,3.45,3.64.4.11.81.18,1.24.18h0c2.64,0,4.79-2.14,4.79-4.79,0-.33-.03-.65-.1-.97-.04-.17-.1-.33-.16-.5Z"/><path class="cls-2" d="m544.52,317.05c0,1.49.6,2.83,1.58,3.81.05.05.12.09.17.14.96.88,2.23,1.44,3.64,1.44h0c2.97,0,5.38-2.41,5.38-5.38,0-.74-.15-1.45-.42-2.1-.82-1.93-2.73-3.29-4.96-3.29-2.97,0-5.38,2.41-5.38,5.38Z"/><path class="cls-2" d="m406.33,382.25c-3.63,0-6.58,2.95-6.58,6.58,0,.68.1,1.34.3,1.96.19.6.46,1.15.79,1.66.01.02.02.04.04.06.76,1.13,1.88,2.01,3.18,2.49.19.07.38.13.58.19.3.08.61.14.93.18.25.03.51.05.77.05h0c3.63,0,6.58-2.95,6.58-6.58,0-.67-.1-1.31-.29-1.92-.82-2.7-3.33-4.66-6.29-4.66Z"/><path class="cls-2" d="m298.64,450.15h0c4.13,0,7.48-3.35,7.48-7.48s-3.35-7.48-7.48-7.48h0c-4.13,0-7.48,3.35-7.48,7.48s3.35,7.48,7.48,7.48Z"/><path class="cls-2" d="m218.82,477.75c-.03.27-.04.55-.04.83,0,.84.13,1.64.36,2.4.31,1.01.82,1.94,1.48,2.74,1.48,1.79,3.72,2.94,6.23,2.94,4.46,0,8.08-3.62,8.08-8.08,0-.28-.01-.55-.04-.83-.41-4.07-3.85-7.25-8.03-7.25s-7.62,3.18-8.03,7.25Z"/><path class="cls-2" d="m146.39,514.47c0,.9.14,1.76.39,2.58.93,2.99,3.43,5.28,6.54,5.92.56.12,1.15.18,1.75.18s1.18-.06,1.75-.18c3.95-.81,6.93-4.31,6.93-8.5,0-2.4-.97-4.56-2.54-6.13-.59-.59-1.26-1.09-2-1.49-.49-.27-1.01-.49-1.56-.66-.81-.25-1.68-.39-2.58-.39s-1.76.14-2.58.39c-.54.17-1.06.39-1.56.66s-.95.58-1.38.93c-1.93,1.59-3.16,4-3.16,6.69Z"/><path class="cls-2" d="m121.2,523.68c-.65-.15-1.33-.24-2.03-.24h0c-4.96,0-8.97,4.02-8.97,8.97,0,2.79,1.27,5.28,3.27,6.92,1.55,1.28,3.54,2.05,5.71,2.05h0c2.17,0,4.16-.77,5.71-2.05,1.99-1.65,3.27-4.14,3.27-6.92,0-4.26-2.97-7.81-6.94-8.73Z"/><circle class="cls-2" cx="11.49" cy="31.01" r=".17"/><path class="cls-2" d="m36.17,19.74c.59,0,1.07-.48,1.07-1.07s-.48-1.07-1.07-1.07-1.07.48-1.07,1.07.48,1.07,1.07,1.07Z"/><circle class="cls-2" cx="60.84" cy="6.34" r=".49"/><path class="cls-2" d="m11.49,68.38c.2,0,.35-.16.35-.35s-.16-.35-.35-.35-.35.16-.35.35.16.35.35.35Z"/><path class="cls-2" d="m36.17,54.18c-.83,0-1.51.68-1.51,1.51s.68,1.51,1.51,1.51,1.51-.68,1.51-1.51-.68-1.51-1.51-1.51Z"/><circle class="cls-2" cx="60.84" cy="43.35" r="1.61"/><path class="cls-2" d="m85.52,31.91c.5,0,.9-.4.9-.9s-.4-.9-.9-.9-.9.4-.9.9.4.9.9.9Z"/><path class="cls-2" d="m110.2,19.41c.41,0,.74-.33.74-.74s-.33-.74-.74-.74-.74.33-.74.74.33.74.74.74Z"/><path class="cls-2" d="m134.88,7.63c.71,0,1.29-.58,1.29-1.29s-.58-1.29-1.29-1.29-1.29.58-1.29,1.29.58,1.29,1.29,1.29Z"/><path class="cls-2" d="m11.49,105.65c.33,0,.61-.27.61-.61s-.27-.6-.61-.6-.61.27-.61.6.27.61.61.61Z"/><path class="cls-2" d="m48.51,88.57c1.12,0,2.03-.91,2.03-2.03s-.91-2.03-2.03-2.03-2.03.91-2.03,2.03.91,2.03,2.03,2.03Z"/><path class="cls-2" d="m85.52,70.16c1.17,0,2.13-.95,2.13-2.13s-.95-2.13-2.13-2.13-2.13.95-2.13,2.13.95,2.13,2.13,2.13Z"/><path class="cls-2" d="m122.54,50.73c.67,0,1.21-.54,1.21-1.21s-.54-1.21-1.21-1.21-1.21.54-1.21,1.21.54,1.21,1.21,1.21Z"/><path class="cls-2" d="m159.55,31.99c.54,0,.98-.44.98-.98s-.44-.98-.98-.98-.98.44-.98.98.44.98.98.98Z"/><path class="cls-2" d="m196.57,14.15c.91,0,1.65-.74,1.65-1.65s-.74-1.65-1.65-1.65-1.65.74-1.65,1.65.74,1.65,1.65,1.65Z"/><circle class="cls-2" cx="11.49" cy="142.06" r=".92"/><path class="cls-2" d="m44.39,127.81c1.22,0,2.2-.98,2.2-2.2s-.99-2.2-2.2-2.2-2.2.99-2.2,2.2.99,2.2,2.2,2.2Z"/><path class="cls-2" d="m77.3,111.9c1.52,0,2.74-1.23,2.74-2.74s-1.23-2.74-2.74-2.74-2.74,1.23-2.74,2.74,1.23,2.74,2.74,2.74Z"/><path class="cls-2" d="m110.2,95.33c1.45,0,2.62-1.17,2.62-2.62s-1.17-2.62-2.62-2.62-2.62,1.17-2.62,2.62,1.17,2.62,2.62,2.62Z"/><path class="cls-2" d="m143.1,78.31c1.13,0,2.05-.92,2.05-2.05s-.92-2.05-2.05-2.05-2.05.92-2.05,2.05.92,2.05,2.05,2.05Z"/><path class="cls-2" d="m176.01,60.87c.59,0,1.07-.48,1.07-1.07s-.48-1.07-1.07-1.07-1.07.48-1.07,1.07.48,1.07,1.07,1.07Z"/><path class="cls-2" d="m208.91,44.57c.67,0,1.21-.54,1.21-1.21s-.54-1.21-1.21-1.21-1.21.54-1.21,1.21.54,1.21,1.21,1.21Z"/><circle class="cls-2" cx="241.81" cy="26.9" r="2.05"/><path class="cls-2" d="m274.71,12.1c.91,0,1.65-.74,1.65-1.65s-.74-1.65-1.65-1.65-1.65.74-1.65,1.65.74,1.65,1.65,1.65Z"/><path class="cls-2" d="m11.49,180.38c.72,0,1.31-.58,1.31-1.31s-.58-1.31-1.31-1.31-1.31.58-1.31,1.31.58,1.31,1.31,1.31Z"/><path class="cls-2" d="m42.34,166.06c1.33,0,2.4-1.08,2.4-2.4s-1.08-2.4-2.4-2.4-2.4,1.08-2.4,2.4,1.08,2.4,2.4,2.4Z"/><circle class="cls-2" cx="73.18" cy="148.23" r="3.05"/><circle class="cls-2" cx="104.03" cy="132.81" r="3.31"/><circle class="cls-2" cx="134.88" cy="117.38" r="3.09"/><path class="cls-2" d="m165.72,99.31c-1.46,0-2.65,1.19-2.65,2.65s1.19,2.65,2.65,2.65,2.65-1.19,2.65-2.65-1.19-2.65-2.65-2.65Z"/><path class="cls-2" d="m196.57,88.36c1.01,0,1.82-.82,1.82-1.82s-.82-1.82-1.82-1.82-1.82.82-1.82,1.82.82,1.82,1.82,1.82Z"/><path class="cls-2" d="m227.42,72.29c.65,0,1.18-.53,1.18-1.18s-.53-1.18-1.18-1.18-1.18.53-1.18,1.18.53,1.18,1.18,1.18Z"/><path class="cls-2" d="m258.26,57.13c.79,0,1.44-.64,1.44-1.44s-.64-1.44-1.44-1.44-1.44.64-1.44,1.44.64,1.44,1.44,1.44Z"/><path class="cls-2" d="m289.11,42.49c1.23,0,2.23-1,2.23-2.23s-1-2.23-2.23-2.23-2.23,1-2.23,2.23,1,2.23,2.23,2.23Z"/><path class="cls-2" d="m319.96,27.05c1.22,0,2.21-.99,2.21-2.21s-.99-2.21-2.21-2.21-2.21.99-2.21,2.21.99,2.21,2.21,2.21Z"/><path class="cls-2" d="m350.8,11c.87,0,1.58-.71,1.58-1.58s-.71-1.58-1.58-1.58-1.58.71-1.58,1.58.71,1.58,1.58,1.58Z"/><path class="cls-2" d="m11.49,217.85c.97,0,1.75-.79,1.75-1.75s-.79-1.75-1.75-1.75-1.75.79-1.75,1.75.79,1.75,1.75,1.75Z"/><path class="cls-2" d="m45.61,197.59c0,1.6,1.3,2.89,2.89,2.89s2.89-1.3,2.89-2.89-1.3-2.89-2.89-2.89-2.89,1.3-2.89,2.89Z"/><path class="cls-2" d="m85.52,182.63c1.96,0,3.55-1.59,3.55-3.55s-1.59-3.55-3.55-3.55-3.55,1.59-3.55,3.55,1.59,3.55,3.55,3.55Z"/><path class="cls-2" d="m122.54,164.37c2.1,0,3.8-1.7,3.8-3.8s-1.7-3.8-3.8-3.8-3.8,1.7-3.8,3.8,1.7,3.8,3.8,3.8Z"/><path class="cls-2" d="m159.55,145.59c1.95,0,3.53-1.58,3.53-3.53s-1.58-3.53-3.53-3.53-3.53,1.58-3.53,3.53,1.58,3.53,3.53,3.53Z"/><path class="cls-2" d="m196.57,126.59c1.68,0,3.04-1.36,3.04-3.04s-1.36-3.04-3.04-3.04-3.04,1.36-3.04,3.04,1.36,3.04,3.04,3.04Z"/><circle class="cls-2" cx="233.59" cy="105.05" r="2.12"/><circle class="cls-2" cx="270.6" cy="86.54" r="1.41"/><path class="cls-2" d="m307.62,69.68c.91,0,1.65-.74,1.65-1.65s-.74-1.65-1.65-1.65-1.65.74-1.65,1.65.74,1.65,1.65,1.65Z"/><path class="cls-2" d="m344.63,51.98c1.36,0,2.46-1.1,2.46-2.46s-1.1-2.46-2.46-2.46-2.46,1.1-2.46,2.46,1.1,2.46,2.46,2.46Z"/><path class="cls-2" d="m381.65,33.42c1.33,0,2.41-1.08,2.41-2.41s-1.08-2.41-2.41-2.41-2.41,1.08-2.41,2.41,1.08,2.41,2.41,2.41Z"/><circle class="cls-2" cx="418.67" cy="12.5" r="1.71"/><circle class="cls-2" cx="11.49" cy="253.11" r="2.27"/><path class="cls-2" d="m49.27,235.84c0-1.79-1.45-3.24-3.24-3.24s-3.24,1.45-3.24,3.24,1.45,3.24,3.24,3.24,3.24-1.45,3.24-3.24Z"/><circle class="cls-2" cx="80.59" cy="218.56" r="3.85"/><path class="cls-2" d="m110.94,201.29c0,2.32,1.88,4.19,4.19,4.19s4.19-1.88,4.19-4.19-1.88-4.19-4.19-4.19-4.19,1.88-4.19,4.19Z"/><circle class="cls-2" cx="149.68" cy="184.01" r="4.24"/><path class="cls-2" d="m184.23,170.69c2.18,0,3.95-1.77,3.95-3.95s-1.77-3.95-3.95-3.95-3.95,1.77-3.95,3.95,1.77,3.95,3.95,3.95Z"/><path class="cls-2" d="m218.78,153c1.95,0,3.53-1.58,3.53-3.53s-1.58-3.53-3.53-3.53-3.53,1.58-3.53,3.53,1.58,3.53,3.53,3.53Z"/><path class="cls-2" d="m253.33,135.05c1.58,0,2.86-1.28,2.86-2.86s-1.28-2.86-2.86-2.86-2.86,1.28-2.86,2.86,1.28,2.86,2.86,2.86Z"/><path class="cls-2" d="m287.88,116.95c1.12,0,2.03-.91,2.03-2.03s-.91-2.03-2.03-2.03-2.03.91-2.03,2.03.91,2.03,2.03,2.03Z"/><path class="cls-2" d="m320.84,97.64c0,.87.71,1.58,1.58,1.58s1.58-.71,1.58-1.58-.71-1.58-1.58-1.58-1.58.71-1.58,1.58Z"/><path class="cls-2" d="m356.97,82.23c1.03,0,1.86-.83,1.86-1.86s-.83-1.86-1.86-1.86-1.86.83-1.86,1.86.83,1.86,1.86,1.86Z"/><path class="cls-2" d="m391.52,65.61c1.39,0,2.51-1.13,2.51-2.51s-1.13-2.51-2.51-2.51-2.51,1.13-2.51,2.51,1.13,2.51,2.51,2.51Z"/><path class="cls-2" d="m426.07,48.55c1.51,0,2.73-1.22,2.73-2.73s-1.22-2.73-2.73-2.73-2.73,1.22-2.73,2.73,1.22,2.73,2.73,2.73Z"/><path class="cls-2" d="m460.62,30.87c1.28,0,2.33-1.04,2.33-2.33s-1.04-2.33-2.33-2.33-2.33,1.04-2.33,2.33,1.04,2.33,2.33,2.33Z"/><path class="cls-2" d="m495.17,12.84c.86,0,1.56-.7,1.56-1.56s-.7-1.56-1.56-1.56-1.56.7-1.56,1.56.7,1.56,1.56,1.56Z"/><circle class="cls-2" cx="11.49" cy="290.13" r="2.85"/><circle class="cls-2" cx="44.39" cy="273.67" r="3.67"/><path class="cls-2" d="m77.3,253.01c-2.33,0-4.21,1.89-4.21,4.21s1.89,4.21,4.21,4.21,4.21-1.89,4.21-4.21-1.89-4.21-4.21-4.21Z"/><path class="cls-2" d="m114.74,240.77c0-2.51-2.03-4.54-4.54-4.54s-4.54,2.03-4.54,4.54,2.03,4.54,4.54,4.54,4.54-2.03,4.54-4.54Z"/><path class="cls-2" d="m147.79,224.32c0-2.59-2.1-4.68-4.68-4.68s-4.68,2.1-4.68,4.68,2.1,4.68,4.68,4.68,4.68-2.1,4.68-4.68Z"/><circle class="cls-2" cx="176.01" cy="207.87" r="4.64"/><path class="cls-2" d="m213.25,191.42c0-2.4-1.94-4.34-4.34-4.34s-4.34,1.94-4.34,4.34,1.94,4.34,4.34,4.34,4.34-1.94,4.34-4.34Z"/><path class="cls-2" d="m245.77,174.96c0-2.19-1.77-3.96-3.96-3.96s-3.96,1.77-3.96,3.96,1.77,3.96,3.96,3.96,3.96-1.77,3.96-3.96Z"/><path class="cls-2" d="m274.71,161.96c1.9,0,3.44-1.54,3.44-3.44s-1.54-3.44-3.44-3.44-3.44,1.54-3.44,3.44,1.54,3.44,3.44,3.44Z"/><path class="cls-2" d="m307.62,144.78c1.5,0,2.71-1.21,2.71-2.71s-1.22-2.71-2.71-2.71-2.71,1.22-2.71,2.71,1.22,2.71,2.71,2.71Z"/><path class="cls-2" d="m340.52,127.68c1.14,0,2.07-.93,2.07-2.07s-.93-2.07-2.07-2.07-2.07.93-2.07,2.07.93,2.07,2.07,2.07Z"/><path class="cls-2" d="m373.42,110.97c1,0,1.81-.81,1.81-1.81s-.81-1.81-1.81-1.81-1.81.81-1.81,1.81.81,1.81,1.81,1.81Z"/><path class="cls-2" d="m406.33,94.76c1.13,0,2.05-.92,2.05-2.05s-.92-2.05-2.05-2.05-2.05.92-2.05,2.05.92,2.05,2.05,2.05Z"/><path class="cls-2" d="m439.23,78.83c1.42,0,2.57-1.15,2.57-2.57s-1.15-2.57-2.57-2.57-2.57,1.15-2.57,2.57,1.15,2.57,2.57,2.57Z"/><path class="cls-2" d="m472.13,62.68c1.59,0,2.88-1.29,2.88-2.88s-1.29-2.88-2.88-2.88-2.88,1.29-2.88,2.88,1.29,2.88,2.88,2.88Z"/><path class="cls-2" d="m505.04,46.02c1.47,0,2.66-1.19,2.66-2.66s-1.19-2.66-2.66-2.66-2.66,1.19-2.66,2.66,1.19,2.66,2.66,2.66Z"/><circle class="cls-2" cx="537.94" cy="26.9" r="2.2"/><path class="cls-2" d="m570.84,11.88c.79,0,1.43-.64,1.43-1.43s-.64-1.43-1.43-1.43-1.43.64-1.43,1.43.64,1.43,1.43,1.43Z"/><circle class="cls-2" cx="11.49" cy="327.14" r="3.5"/><circle class="cls-2" cx="48.51" cy="308.63" r="4.26"/><circle class="cls-2" cx="85.52" cy="290.13" r="4.74"/><path class="cls-2" d="m122.54,266.63c-2.75,0-4.98,2.23-4.98,4.98s2.23,4.98,4.98,4.98,4.98-2.23,4.98-4.98-2.23-4.98-4.98-4.98Z"/><circle class="cls-2" cx="159.55" cy="253.11" r="5.12"/><circle class="cls-2" cx="196.57" cy="234.6" r="5.04" transform="translate(-16.14 14.52) rotate(-4.07)"/><path class="cls-2" d="m233.59,220.8c2.6,0,4.71-2.11,4.71-4.71s-2.11-4.71-4.71-4.71-4.71,2.11-4.71,4.71,2.11,4.71,4.71,4.71Z"/><path class="cls-2" d="m270.6,201.89c2.37,0,4.3-1.93,4.3-4.3s-1.93-4.3-4.3-4.3-4.3,1.93-4.3,4.3,1.93,4.3,4.3,4.3Z"/><path class="cls-2" d="m307.62,182.83c2.07,0,3.76-1.68,3.76-3.75s-1.68-3.76-3.76-3.76-3.76,1.68-3.76,3.76,1.68,3.75,3.76,3.75Z"/><path class="cls-2" d="m344.63,157.57c-1.66,0-3,1.34-3,3s1.34,3,3,3,3-1.35,3-3-1.34-3-3-3Z"/><path class="cls-2" d="m383.99,142.06c0-1.29-1.05-2.34-2.34-2.34s-2.34,1.05-2.34,2.34,1.05,2.34,2.34,2.34,2.34-1.05,2.34-2.34Z"/><path class="cls-2" d="m418.67,125.6c1.13,0,2.05-.92,2.05-2.05s-.92-2.05-2.05-2.05-2.05.92-2.05,2.05.92,2.05,2.05,2.05Z"/><path class="cls-2" d="m455.68,107.29c1.24,0,2.24-1,2.24-2.24s-1-2.24-2.24-2.24-2.24,1-2.24,2.24,1,2.24,2.24,2.24Z"/><path class="cls-2" d="m492.7,89.24c1.49,0,2.71-1.21,2.71-2.71s-1.21-2.71-2.71-2.71-2.71,1.21-2.71,2.71,1.21,2.71,2.71,2.71Z"/><path class="cls-2" d="m529.71,70.99c1.64,0,2.96-1.33,2.96-2.96s-1.33-2.96-2.96-2.96-2.96,1.33-2.96,2.96,1.33,2.96,2.96,2.96Z"/><path class="cls-2" d="m566.73,52.24c1.5,0,2.71-1.22,2.71-2.71s-1.22-2.71-2.71-2.71-2.71,1.22-2.71,2.71,1.22,2.71,2.71,2.71Z"/><circle class="cls-2" cx="603.75" cy="31.01" r="2.22"/><path class="cls-2" d="m640.76,13.94c.79,0,1.44-.64,1.44-1.44s-.64-1.44-1.44-1.44-1.44.64-1.44,1.44.64,1.44,1.44,1.44Z"/><path class="cls-2" d="m11.49,368.37c2.33,0,4.21-1.88,4.21-4.21s-1.88-4.21-4.21-4.21-4.21,1.88-4.21,4.21,1.88,4.21,4.21,4.21Z"/><path class="cls-2" d="m46.74,351.34c2.65,0,4.8-2.15,4.8-4.8s-2.15-4.8-4.8-4.8-4.8,2.15-4.8,4.8,2.15,4.8,4.8,4.8Z"/><circle class="cls-2" cx="82" cy="328.9" r="5.17"/><path class="cls-2" d="m117.25,305.89c-2.98,0-5.39,2.41-5.39,5.39s2.41,5.39,5.39,5.39,5.39-2.41,5.39-5.39-2.41-5.39-5.39-5.39Z"/><circle class="cls-2" cx="152.5" cy="293.65" r="5.53"/><path class="cls-2" d="m193.29,276.02c0-3.05-2.48-5.53-5.53-5.53s-5.53,2.48-5.53,5.53,2.48,5.53,5.53,5.53,5.53-2.48,5.53-5.53Z"/><path class="cls-2" d="m217.63,258.4c0,2.97,2.41,5.38,5.38,5.38s5.38-2.41,5.38-5.38-2.41-5.38-5.38-5.38-5.38,2.41-5.38,5.38Z"/><path class="cls-2" d="m253.21,240.77c0,2.79,2.26,5.05,5.05,5.05s5.05-2.26,5.05-5.05-2.26-5.05-5.05-5.05-5.05,2.26-5.05,5.05Z"/><path class="cls-2" d="m288.84,223.14c0,2.58,2.09,4.68,4.68,4.68s4.68-2.09,4.68-4.68-2.09-4.68-4.68-4.68-4.68,2.09-4.68,4.68Z"/><path class="cls-2" d="m328.77,209.74c2.33,0,4.22-1.89,4.22-4.22s-1.89-4.22-4.22-4.22-4.22,1.89-4.22,4.22,1.89,4.22,4.22,4.22Z"/><circle class="cls-2" cx="364.02" cy="187.89" r="3.63"/><path class="cls-2" d="m399.28,173.25c1.65,0,2.98-1.34,2.98-2.98s-1.34-2.98-2.98-2.98-2.98,1.34-2.98,2.98,1.34,2.98,2.98,2.98Z"/><path class="cls-2" d="m434.53,155.1c1.36,0,2.47-1.1,2.47-2.47s-1.1-2.47-2.47-2.47-2.47,1.1-2.47,2.47,1.1,2.47,2.47,2.47Z"/><path class="cls-2" d="m469.78,137.28c1.25,0,2.27-1.02,2.27-2.27s-1.02-2.27-2.27-2.27-2.27,1.02-2.27,2.27,1.02,2.27,2.27,2.27Z"/><path class="cls-2" d="m505.04,114.96c-1.34,0-2.42,1.08-2.42,2.42s1.08,2.42,2.42,2.42,2.42-1.08,2.42-2.42-1.08-2.42-2.42-2.42Z"/><path class="cls-2" d="m537.54,99.76c0,1.52,1.23,2.75,2.75,2.75s2.75-1.23,2.75-2.75-1.23-2.75-2.75-2.75-2.75,1.23-2.75,2.75Z"/><path class="cls-2" d="m575.54,85.13c1.66,0,3-1.34,3-3s-1.34-3-3-3-3,1.34-3,3,1.34,3,3,3Z"/><circle class="cls-2" cx="610.8" cy="64.5" r="2.87"/><path class="cls-2" d="m646.05,49.4c1.39,0,2.52-1.13,2.52-2.52s-1.13-2.52-2.52-2.52-2.52,1.13-2.52,2.52,1.13,2.52,2.52,2.52Z"/><path class="cls-2" d="m681.3,31.22c1.09,0,1.97-.88,1.97-1.97s-.88-1.97-1.97-1.97-1.97.88-1.97,1.97.88,1.97,1.97,1.97Z"/><path class="cls-2" d="m716.56,12.89c.7,0,1.26-.57,1.26-1.26s-.57-1.26-1.26-1.26-1.26.57-1.26,1.26.57,1.26,1.26,1.26Z"/><circle class="cls-2" cx="11.49" cy="401.17" r="4.99" transform="translate(-13.34 .6) rotate(-1.91)"/><circle class="cls-2" cx="45.42" cy="384.21" r="5.42" transform="translate(-341.39 391.55) rotate(-84.34)"/><path class="cls-2" d="m79.35,372.93c3.14,0,5.69-2.55,5.69-5.69s-2.55-5.69-5.69-5.69-5.69,2.55-5.69,5.69,2.55,5.69,5.69,5.69Z"/><path class="cls-2" d="m113.28,356.15c3.24,0,5.87-2.63,5.87-5.87s-2.63-5.87-5.87-5.87-5.87,2.63-5.87,5.87,2.63,5.87,5.87,5.87Z"/><circle class="cls-2" cx="147.21" cy="333.31" r="5.94"/><path class="cls-2" d="m187.12,316.35c0-3.3-2.67-5.97-5.97-5.97s-5.97,2.67-5.97,5.97,2.67,5.97,5.97,5.97,5.97-2.67,5.97-5.97Z"/><path class="cls-2" d="m220.97,299.38c0-3.25-2.64-5.89-5.89-5.89s-5.89,2.64-5.89,5.89,2.64,5.89,5.89,5.89,5.89-2.64,5.89-5.89Z"/><path class="cls-2" d="m254.7,282.41c0-3.14-2.55-5.69-5.69-5.69s-5.69,2.55-5.69,5.69,2.55,5.69,5.69,5.69,5.69-2.55,5.69-5.69Z"/><path class="cls-2" d="m288.31,265.45c0-2.96-2.4-5.37-5.37-5.37s-5.37,2.4-5.37,5.37,2.4,5.37,5.37,5.37,5.37-2.4,5.37-5.37Z"/><path class="cls-2" d="m316.87,253.5c2.77,0,5.02-2.25,5.02-5.02s-2.25-5.02-5.02-5.02-5.02,2.25-5.02,5.02,2.25,5.02,5.02,5.02Z"/><circle class="cls-2" cx="350.8" cy="231.52" r="4.63"/><path class="cls-2" d="m380.57,214.55c0,2.3,1.86,4.16,4.16,4.16s4.16-1.86,4.16-4.16-1.86-4.16-4.16-4.16-4.16,1.86-4.16,4.16Z"/><path class="cls-2" d="m418.67,201.16c1.97,0,3.57-1.6,3.57-3.57s-1.6-3.57-3.57-3.57-3.57,1.6-3.57,3.57,1.6,3.57,3.57,3.57Z"/><path class="cls-2" d="m452.6,183.66c1.68,0,3.04-1.36,3.04-3.04s-1.36-3.04-3.04-3.04-3.04,1.36-3.04,3.04,1.36,3.04,3.04,3.04Z"/><path class="cls-2" d="m486.53,166.34c1.48,0,2.69-1.2,2.69-2.69s-1.2-2.69-2.69-2.69-2.69,1.2-2.69,2.69,1.2,2.69,2.69,2.69Z"/><path class="cls-2" d="m520.46,149.18c1.38,0,2.49-1.12,2.49-2.49s-1.12-2.49-2.49-2.49-2.49,1.12-2.49,2.49,1.12,2.49,2.49,2.49Z"/><path class="cls-2" d="m554.39,132.31c1.43,0,2.59-1.16,2.59-2.59s-1.16-2.59-2.59-2.59-2.59,1.16-2.59,2.59,1.16,2.59,2.59,2.59Z"/><circle class="cls-2" cx="588.32" cy="112.76" r="2.81"/><circle class="cls-2" cx="622.25" cy="95.79" r="3"/><path class="cls-2" d="m656.19,81.76c1.62,0,2.94-1.31,2.94-2.94s-1.32-2.94-2.94-2.94-2.94,1.31-2.94,2.94,1.31,2.94,2.94,2.94Z"/><path class="cls-2" d="m690.12,64.52c1.47,0,2.66-1.19,2.66-2.66s-1.19-2.66-2.66-2.66-2.66,1.19-2.66,2.66,1.19,2.66,2.66,2.66Z"/><path class="cls-2" d="m724.05,47.17c1.26,0,2.28-1.02,2.28-2.28s-1.02-2.28-2.28-2.28-2.28,1.02-2.28,2.28,1.02,2.28,2.28,2.28Z"/><path class="cls-2" d="m757.98,29.66c.96,0,1.73-.77,1.73-1.73s-.78-1.73-1.73-1.73-1.73.78-1.73,1.73.78,1.73,1.73,1.73Z"/><path class="cls-2" d="m791.91,12.05c.6,0,1.09-.49,1.09-1.09s-.49-1.09-1.09-1.09-1.09.49-1.09,1.09.49,1.09,1.09,1.09Z"/><circle class="cls-2" cx="11.49" cy="438.19" r="5.83"/><path class="cls-2" d="m42.37,419.68c0,3.39,2.75,6.14,6.14,6.14s6.14-2.75,6.14-6.14-2.75-6.14-6.14-6.14-6.14,2.75-6.14,6.14Z"/><circle class="cls-2" cx="85.52" cy="401.17" r="6.31"/><path class="cls-2" d="m128.95,382.67c0-3.54-2.87-6.41-6.41-6.41s-6.41,2.87-6.41,6.41,2.87,6.41,6.41,6.41,6.41-2.87,6.41-6.41Z"/><circle class="cls-2" cx="159.55" cy="364.16" r="6.4"/><path class="cls-2" d="m202.94,345.65c0-3.52-2.85-6.37-6.37-6.37s-6.37,2.85-6.37,6.37,2.85,6.37,6.37,6.37,6.37-2.85,6.37-6.37Z"/><circle class="cls-2" cx="233.59" cy="327.14" r="6.24"/><path class="cls-2" d="m270.6,314.63c3.31,0,6-2.69,6-6s-2.69-6-6-6-6,2.69-6,6,2.69,6,6,6Z"/><path class="cls-2" d="m307.62,295.79c3.13,0,5.66-2.53,5.66-5.66s-2.53-5.66-5.66-5.66-5.66,2.53-5.66,5.66,2.53,5.66,5.66,5.66Z"/><circle class="cls-2" cx="344.63" cy="271.62" r="5.3" transform="translate(-11.95 15.9) rotate(-2.6)"/><circle class="cls-2" cx="381.65" cy="253.11" r="4.9"/><path class="cls-2" d="m418.67,239.03c2.44,0,4.43-1.98,4.43-4.43s-1.98-4.43-4.43-4.43-4.43,1.98-4.43,4.43,1.98,4.43,4.43,4.43Z"/><path class="cls-2" d="m459.53,216.09c0-2.13-1.72-3.85-3.85-3.85s-3.85,1.72-3.85,3.85,1.72,3.85,3.85,3.85,3.85-1.72,3.85-3.85Z"/><path class="cls-2" d="m492.7,200.91c1.84,0,3.32-1.49,3.32-3.32s-1.49-3.32-3.32-3.32-3.32,1.49-3.32,3.32,1.49,3.32,3.32,3.32Z"/><path class="cls-2" d="m529.71,176.12c-1.63,0-2.96,1.32-2.96,2.96s1.33,2.96,2.96,2.96,2.96-1.33,2.96-2.96-1.33-2.96-2.96-2.96Z"/><circle class="cls-2" cx="566.73" cy="160.57" r="2.77"/><path class="cls-2" d="m603.75,144.81c1.52,0,2.75-1.23,2.75-2.75s-1.23-2.75-2.75-2.75-2.75,1.23-2.75,2.75,1.23,2.75,2.75,2.75Z"/><path class="cls-2" d="m640.76,126.43c1.59,0,2.87-1.29,2.87-2.87s-1.29-2.87-2.87-2.87-2.87,1.29-2.87,2.87,1.29,2.87,2.87,2.87Z"/><path class="cls-2" d="m677.78,108.02c1.64,0,2.97-1.33,2.97-2.97s-1.33-2.97-2.97-2.97-2.97,1.33-2.97,2.97,1.33,2.97,2.97,2.97Z"/><path class="cls-2" d="m714.79,89.38c1.57,0,2.85-1.27,2.85-2.85s-1.27-2.85-2.85-2.85-2.85,1.27-2.85,2.85,1.27,2.85,2.85,2.85Z"/><path class="cls-2" d="m751.81,70.55c1.39,0,2.52-1.13,2.52-2.52s-1.13-2.52-2.52-2.52-2.52,1.13-2.52,2.52,1.13,2.52,2.52,2.52Z"/><path class="cls-2" d="m788.83,51.67c1.19,0,2.15-.96,2.15-2.15s-.96-2.15-2.15-2.15-2.15.96-2.15,2.15.96,2.15,2.15,2.15Z"/><path class="cls-2" d="m825.84,32.64c.9,0,1.63-.73,1.63-1.63s-.73-1.63-1.63-1.63-1.63.73-1.63,1.63.73,1.63,1.63,1.63Z"/><circle class="cls-2" cx="862.86" cy="12.5" r="1.01"/><path class="cls-2" d="m11.49,481.95c3.72,0,6.74-3.02,6.74-6.74s-3.02-6.74-6.74-6.74-6.74,3.02-6.74,6.74,3.02,6.74,6.74,6.74Z"/><circle class="cls-2" cx="47.13" cy="457.38" r="6.89" transform="translate(-20.68 2.61) rotate(-2.6)"/><path class="cls-2" d="m82.78,446.52c3.84,0,6.96-3.11,6.96-6.96s-3.11-6.96-6.96-6.96-6.96,3.11-6.96,6.96,3.11,6.96,6.96,6.96Z"/><circle class="cls-2" cx="118.42" cy="421.74" r="6.98"/><path class="cls-2" d="m154.07,397.01c-3.81,0-6.91,3.09-6.91,6.91s3.09,6.91,6.91,6.91,6.91-3.09,6.91-6.91-3.09-6.91-6.91-6.91Z"/><circle class="cls-2" cx="189.71" cy="386.09" r="6.83"/><circle class="cls-2" cx="225.36" cy="368.27" r="6.67"/><path class="cls-2" d="m267.47,350.45c0-3.57-2.89-6.46-6.46-6.46s-6.46,2.89-6.46,6.46,2.89,6.46,6.46,6.46,6.46-2.89,6.46-6.46Z"/><circle class="cls-2" cx="296.65" cy="332.63" r="6.25"/><path class="cls-2" d="m326.37,314.8c0,3.27,2.65,5.93,5.93,5.93s5.93-2.65,5.93-5.93-2.65-5.93-5.93-5.93-5.93,2.65-5.93,5.93Z"/><path class="cls-2" d="m362.35,296.98c0,3.09,2.5,5.59,5.59,5.59s5.59-2.5,5.59-5.59-2.5-5.59-5.59-5.59-5.59,2.5-5.59,5.59Z"/><path class="cls-2" d="m398.34,279.16c0,2.9,2.35,5.24,5.24,5.24s5.24-2.35,5.24-5.24-2.35-5.24-5.24-5.24-5.24,2.35-5.24,5.24Z"/><circle class="cls-2" cx="439.23" cy="261.34" r="4.84"/><path class="cls-2" d="m470.5,243.51c0,2.42,1.96,4.37,4.37,4.37s4.37-1.96,4.37-4.37-1.96-4.37-4.37-4.37-4.37,1.96-4.37,4.37Z"/><path class="cls-2" d="m510.52,229.59c2.15,0,3.9-1.75,3.9-3.9s-1.75-3.9-3.9-3.9-3.9,1.75-3.9,3.9,1.75,3.9,3.9,3.9Z"/><path class="cls-2" d="m546.17,211.35c1.92,0,3.48-1.56,3.48-3.48s-1.56-3.48-3.48-3.48-3.48,1.56-3.48,3.48,1.56,3.48,3.48,3.48Z"/><path class="cls-2" d="m581.81,193.2c1.74,0,3.16-1.41,3.16-3.16s-1.41-3.16-3.16-3.16-3.16,1.41-3.16,3.16,1.41,3.16,3.16,3.16Z"/><path class="cls-2" d="m617.46,175.2c1.65,0,2.98-1.33,2.98-2.98s-1.33-2.98-2.98-2.98-2.98,1.33-2.98,2.98,1.33,2.98,2.98,2.98Z"/><path class="cls-2" d="m653.1,157.3c1.6,0,2.9-1.3,2.9-2.9s-1.3-2.9-2.9-2.9-2.9,1.3-2.9,2.9,1.3,2.9,2.9,2.9Z"/><circle class="cls-2" cx="688.75" cy="136.58" r="2.91"/><path class="cls-2" d="m724.39,121.68c1.61,0,2.92-1.31,2.92-2.92s-1.31-2.92-2.92-2.92-2.92,1.31-2.92,2.92,1.31,2.92,2.92,2.92Z"/><path class="cls-2" d="m757.25,100.93c0,1.54,1.25,2.79,2.79,2.79s2.79-1.25,2.79-2.79-1.25-2.79-2.79-2.79-2.79,1.25-2.79,2.79Z"/><path class="cls-2" d="m795.68,85.66c1.41,0,2.55-1.14,2.55-2.55s-1.14-2.55-2.55-2.55-2.55,1.14-2.55,2.55,1.14,2.55,2.55,2.55Z"/><path class="cls-2" d="m833.53,65.29c0-1.22-.99-2.21-2.21-2.21s-2.21.99-2.21,2.21.99,2.21,2.21,2.21,2.21-.99,2.21-2.21Z"/><path class="cls-2" d="m866.97,49.32c1.02,0,1.85-.83,1.85-1.85s-.83-1.85-1.85-1.85-1.85.83-1.85,1.85.83,1.85,1.85,1.85Z"/><path class="cls-2" d="m902.62,28.28c-.75,0-1.36.61-1.36,1.36s.61,1.36,1.36,1.36,1.36-.61,1.36-1.36-.61-1.36-1.36-1.36Z"/><path class="cls-2" d="m938.26,12.64c.45,0,.82-.37.82-.82s-.37-.82-.82-.82-.82.37-.82.82.37.82.82.82Z"/><circle class="cls-2" cx="11.49" cy="512.22" r="7.72"/><path class="cls-2" d="m46.04,502.66c4.26,0,7.72-3.46,7.72-7.72s-3.45-7.72-7.72-7.72-7.72,3.45-7.72,7.72,3.45,7.72,7.72,7.72Z"/><circle class="cls-2" cx="80.59" cy="477.67" r="7.66"/><circle class="cls-2" cx="115.13" cy="460.4" r="7.54"/><path class="cls-2" d="m149.68,450.54c4.1,0,7.42-3.32,7.42-7.42s-3.32-7.42-7.42-7.42-7.42,3.32-7.42,7.42,3.32,7.42,7.42,7.42Z"/><path class="cls-2" d="m184.23,433.15c4.03,0,7.3-3.27,7.3-7.3s-3.27-7.3-7.3-7.3-7.3,3.27-7.3,7.3,3.27,7.3,7.3,7.3Z"/><circle class="cls-2" cx="218.78" cy="408.58" r="7.18" transform="translate(-196.05 615.26) rotate(-88.32)"/><circle class="cls-2" cx="253.33" cy="391.3" r="6.95"/><circle class="cls-2" cx="287.88" cy="374.03" r="6.71" transform="translate(-167.85 496.86) rotate(-67.5)"/><path class="cls-2" d="m322.42,350.27c-3.58,0-6.48,2.9-6.48,6.48s2.9,6.48,6.48,6.48,6.48-2.9,6.48-6.48-2.9-6.48-6.48-6.48Z"/><circle class="cls-2" cx="356.97" cy="339.48" r="6.17" transform="translate(4.04 683.16) rotate(-87.8)"/><path class="cls-2" d="m385.66,322.21c0,3.24,2.62,5.86,5.86,5.86s5.86-2.62,5.86-5.86-2.62-5.86-5.86-5.86-5.86,2.62-5.86,5.86Z"/><path class="cls-2" d="m420.52,304.93c0,3.06,2.48,5.55,5.55,5.55s5.55-2.48,5.55-5.55-2.48-5.55-5.55-5.55-5.55,2.48-5.55,5.55Z"/><path class="cls-2" d="m455.45,287.66c0,2.85,2.31,5.16,5.16,5.16s5.16-2.31,5.16-5.16-2.31-5.16-5.16-5.16-5.16,2.31-5.16,5.16Z"/><circle class="cls-2" cx="495.17" cy="270.38" r="4.78"/><path class="cls-2" d="m529.71,257.51c2.43,0,4.4-1.97,4.4-4.4s-1.97-4.4-4.4-4.4-4.4,1.97-4.4,4.4,1.97,4.4,4.4,4.4Z"/><path class="cls-2" d="m564.26,239.85c2.22,0,4.01-1.8,4.01-4.01s-1.8-4.01-4.01-4.01-4.01,1.8-4.01,4.01,1.8,4.01,4.01,4.01Z"/><path class="cls-2" d="m598.81,222.24c2.03,0,3.67-1.65,3.67-3.67s-1.65-3.67-3.67-3.67-3.67,1.65-3.67,3.67,1.65,3.67,3.67,3.67Z"/><path class="cls-2" d="m636.73,201.29c0-1.86-1.51-3.37-3.37-3.37s-3.37,1.51-3.37,3.37,1.51,3.37,3.37,3.37,3.37-1.51,3.37-3.37Z"/><path class="cls-2" d="m667.91,187.2c1.76,0,3.18-1.43,3.18-3.18s-1.43-3.18-3.18-3.18-3.18,1.42-3.18,3.18,1.43,3.18,3.18,3.18Z"/><path class="cls-2" d="m702.46,169.78c1.68,0,3.04-1.36,3.04-3.04s-1.36-3.04-3.04-3.04-3.04,1.36-3.04,3.04,1.36,3.04,3.04,3.04Z"/><path class="cls-2" d="m737,152.42c1.63,0,2.95-1.32,2.95-2.95s-1.32-2.95-2.95-2.95-2.95,1.32-2.95,2.95,1.32,2.95,2.95,2.95Z"/><circle class="cls-2" cx="771.55" cy="132.19" r="2.86"/><circle class="cls-2" cx="806.1" cy="114.92" r="2.7"/><path class="cls-2" d="m840.65,100.14c1.38,0,2.5-1.12,2.5-2.5s-1.12-2.5-2.5-2.5-2.5,1.12-2.5,2.5,1.12,2.5,2.5,2.5Z"/><path class="cls-2" d="m875.2,82.55c1.21,0,2.18-.98,2.18-2.18s-.98-2.18-2.18-2.18-2.18.98-2.18,2.18.98,2.18,2.18,2.18Z"/><path class="cls-2" d="m909.75,64.96c1.03,0,1.87-.83,1.87-1.86s-.84-1.87-1.87-1.87-1.87.83-1.87,1.87.84,1.86,1.87,1.86Z"/><path class="cls-2" d="m944.29,47.33c.83,0,1.51-.68,1.51-1.51s-.68-1.51-1.51-1.51-1.51.68-1.51,1.51.68,1.51,1.51,1.51Z"/><path class="cls-2" d="m978.84,29.64c.61,0,1.1-.49,1.1-1.1s-.49-1.1-1.1-1.1-1.1.49-1.1,1.1.49,1.1,1.1,1.1Z"/><path class="cls-2" d="m1013.39,10.64c-.35,0-.63.28-.63.63s.28.63.63.63.63-.28.63-.63-.28-.63-.63-.63Z"/><circle class="cls-2" cx="11.49" cy="549.24" r="8.76"/><path class="cls-2" d="m48.51,522.12c-4.75,0-8.61,3.85-8.61,8.6s3.85,8.61,8.61,8.61,8.61-3.85,8.61-8.61-3.85-8.6-8.61-8.6Z"/><path class="cls-2" d="m85.52,503.8c-4.65,0-8.42,3.77-8.42,8.42s3.77,8.42,8.42,8.42,8.42-3.77,8.42-8.42-3.77-8.42-8.42-8.42Z"/><path class="cls-2" d="m122.54,485.51c-4.53,0-8.2,3.67-8.2,8.2s3.67,8.2,8.2,8.2,8.2-3.67,8.2-8.2-3.67-8.2-8.2-8.2Z"/><path class="cls-2" d="m159.55,467.22c-4.41,0-7.98,3.57-7.98,7.98s3.57,7.98,7.98,7.98,7.98-3.57,7.98-7.98-3.57-7.98-7.98-7.98Z"/><path class="cls-2" d="m196.57,448.93c-4.29,0-7.76,3.48-7.76,7.76s3.48,7.76,7.76,7.76,7.76-3.48,7.76-7.76-3.48-7.76-7.76-7.76Z"/><circle class="cls-2" cx="233.59" cy="438.19" r="7.54"/><circle class="cls-2" cx="270.6" cy="419.68" r="7.24" transform="translate(-63.73 48.76) rotate(-9.22)"/><circle class="cls-2" cx="307.62" cy="401.17" r="6.94"/><path class="cls-2" d="m351.28,382.67c0-3.67-2.97-6.65-6.64-6.65s-6.64,2.98-6.64,6.65,2.97,6.64,6.64,6.64,6.64-2.98,6.64-6.64Z"/><circle class="cls-2" cx="381.65" cy="364.16" r="6.34" transform="translate(-24.85 27.97) rotate(-4.07)"/><path class="cls-2" d="m418.67,351.69c3.34,0,6.04-2.71,6.04-6.04s-2.71-6.05-6.04-6.05-6.04,2.71-6.04,6.05,2.71,6.04,6.04,6.04Z"/><circle class="cls-2" cx="455.68" cy="327.14" r="5.75"/><circle class="cls-2" cx="492.7" cy="308.63" r="5.39" transform="translate(19.01 645.72) rotate(-67.5)"/><path class="cls-2" d="m529.71,295.15c2.78,0,5.03-2.25,5.03-5.03s-2.25-5.03-5.03-5.03-5.03,2.25-5.03,5.03,2.25,5.03,5.03,5.03Z"/><circle class="cls-2" cx="566.73" cy="271.62" r="4.67" transform="translate(-17.83 40.86) rotate(-4.07)"/><circle class="cls-2" cx="603.75" cy="253.11" r="4.33"/><path class="cls-2" d="m640.76,238.6c2.21,0,3.99-1.79,3.99-3.99s-1.79-3.99-3.99-3.99-3.99,1.79-3.99,3.99,1.79,3.99,3.99,3.99Z"/><path class="cls-2" d="m677.78,219.75c2.02,0,3.66-1.64,3.66-3.66s-1.64-3.66-3.66-3.66-3.66,1.64-3.66,3.66,1.64,3.66,3.66,3.66Z"/><circle class="cls-2" cx="714.79" cy="197.59" r="3.43"/><path class="cls-2" d="m751.81,182.27c1.77,0,3.2-1.43,3.2-3.2s-1.43-3.2-3.2-3.2-3.2,1.43-3.2,3.2,1.43,3.2,3.2,3.2Z"/><circle class="cls-2" cx="788.83" cy="160.57" r="2.97"/><path class="cls-2" d="m825.84,144.79c1.51,0,2.73-1.22,2.73-2.73s-1.22-2.73-2.73-2.73-2.73,1.22-2.73,2.73,1.22,2.73,2.73,2.73Z"/><circle class="cls-2" cx="862.86" cy="123.55" r="2.5"/><path class="cls-2" d="m899.87,107.31c1.25,0,2.26-1.01,2.26-2.26s-1.01-2.26-2.26-2.26-2.26,1.01-2.26,2.26,1.01,2.26,2.26,2.26Z"/><path class="cls-2" d="m936.89,88.45c1.06,0,1.92-.86,1.92-1.92s-.86-1.92-1.92-1.92-1.92.86-1.92,1.92.86,1.92,1.92,1.92Z"/><path class="cls-2" d="m973.91,69.6c.87,0,1.57-.7,1.57-1.57s-.7-1.57-1.57-1.57-1.57.7-1.57,1.57.7,1.57,1.57,1.57Z"/><circle class="cls-2" cx="1010.92" cy="49.52" r="1.23"/><path class="cls-2" d="m1047.94,31.89c.49,0,.88-.39.88-.88s-.39-.88-.88-.88-.88.39-.88.88.39.88.88.88Z"/><path class="cls-2" d="m1084.96,12.02c-.27,0-.49.22-.49.49s.22.49.49.49.49-.22.49-.49-.22-.49-.49-.49Z"/><path class="cls-2" d="m11.49,576.38c-5.45,0-9.87,4.42-9.87,9.87s4.42,9.87,9.87,9.87,9.87-4.42,9.87-9.87-4.42-9.87-9.87-9.87Z"/><path class="cls-2" d="m54.15,561.54c-1.73-1.73-4.13-2.8-6.77-2.8-5.29,0-9.57,4.29-9.57,9.57s4.29,9.57,9.57,9.57c2.64,0,5.04-1.07,6.77-2.8,1.73-1.73,2.8-4.12,2.8-6.77s-1.07-5.04-2.8-6.77Z"/><path class="cls-2" d="m85.15,559.44c.6-.12,1.19-.31,1.74-.54.83-.35,1.6-.82,2.29-1.39.46-.38.88-.8,1.26-1.26,1.32-1.6,2.12-3.66,2.12-5.9s-.79-4.29-2.12-5.9c-.38-.46-.8-.88-1.26-1.26-.69-.57-1.46-1.04-2.29-1.39-.55-.23-1.14-.42-1.74-.54-.6-.12-1.23-.19-1.87-.19-5.12,0-9.27,4.15-9.27,9.27s4.15,9.27,9.27,9.27c.64,0,1.27-.06,1.87-.19Z"/><path class="cls-2" d="m182.59,496.52c0,2.6,1.19,4.93,3.05,6.46,1.45,1.19,3.3,1.91,5.33,1.91h0c4.63,0,8.38-3.75,8.38-8.38s-3.75-8.38-8.38-8.38h0c-2.02,0-3.88.72-5.33,1.91-1.86,1.54-3.05,3.86-3.05,6.46Z"/><path class="cls-2" d="m257.2,466.07s.03.04.05.06c.22.22.46.42.7.61.27.21.55.4.84.57.2.12.4.22.6.32,1.02.49,2.15.77,3.35.77h0c4.3,0,7.78-3.48,7.78-7.78,0-.54-.05-1.06-.16-1.57-.24-1.18-.76-2.26-1.47-3.18-.2-.26-.42-.52-.65-.75-.22-.22-.46-.42-.7-.61-1.32-1.04-2.98-1.66-4.8-1.66h0c-4.3,0-7.78,3.48-7.78,7.78,0,.54.05,1.06.16,1.57.31,1.49,1.04,2.83,2.07,3.88Z"/><path class="cls-2" d="m341.72,424.73c0-3.96-3.21-7.18-7.18-7.18h0c-3.96,0-7.18,3.21-7.18,7.18s3.21,7.18,7.18,7.18h0c3.96,0,7.18-3.21,7.18-7.18Z"/><path class="cls-2" d="m370.43,399.9h0c-3.8,0-6.88,3.08-6.88,6.88,0,.71.11,1.4.31,2.05.72,2.31,2.63,4.1,5.01,4.65.5.12,1.02.18,1.56.18h0c3.8,0,6.88-3.08,6.88-6.88,0-.95-.19-1.85-.54-2.68-.26-.62-.61-1.19-1.03-1.7-.14-.17-.29-.33-.44-.49-1.24-1.25-2.96-2.02-4.86-2.02Z"/><path class="cls-2" d="m448.38,369.62c-.1-.5-.27-.97-.48-1.42-.18-.38-.4-.73-.64-1.07-.11-.15-.23-.29-.35-.43-.2-.22-.41-.43-.63-.62-.27-.23-.56-.43-.86-.61-.06-.04-.12-.08-.18-.11,0,0-.01,0-.02,0-.89-.48-1.9-.75-2.97-.75h0c-3.47,0-6.28,2.81-6.28,6.28,0,1.73.7,3.31,1.84,4.44.01.01.03.03.04.04,1.13,1.11,2.68,1.8,4.4,1.8h0c3.47,0,6.28-2.81,6.28-6.28,0-.22-.01-.43-.03-.64,0-.05-.02-.09-.02-.14-.02-.16-.04-.33-.07-.48Z"/><path class="cls-2" d="m478.12,346.96h0c-3.3,0-5.98,2.68-5.98,5.98s2.68,5.98,5.98,5.98h0c3.3,0,5.98-2.68,5.98-5.98s-2.68-5.98-5.98-5.98h0Z"/><path class="cls-2" d="m519.69,334.99c0-.59-.09-1.16-.26-1.69-.59-1.91-2.17-3.39-4.14-3.84-.41-.1-.84-.15-1.29-.15h0c-3.14,0-5.68,2.54-5.68,5.68s2.54,5.68,5.68,5.68h0c3.14,0,5.68-2.54,5.68-5.68Z"/><path class="cls-2" d="m585.68,304.17s.08.01.11.01h0c2.81,0,5.09-2.28,5.09-5.08,0-1.05-.32-2.03-.87-2.84-.91-1.35-2.46-2.24-4.22-2.24-2.81,0-5.09,2.28-5.09,5.09,0,1.05.32,2.03.87,2.84.89,1.32,2.4,2.19,4.1,2.23Z"/><path class="cls-2" d="m657.59,258.72h0c-2.48,0-4.49,2.01-4.49,4.49,0,.93.28,1.79.77,2.51.79,1.17,2.12,1.94,3.63,1.97.03,0,.06,0,.09,0h0c2.48,0,4.49-2.01,4.49-4.49s-2.01-4.49-4.49-4.49h0Z"/><path class="cls-2" d="m695.11,241.4c-.25-.11-.51-.19-.79-.24-.27-.06-.55-.08-.84-.08h0c-2.31,0-4.19,1.87-4.19,4.19s1.87,4.19,4.19,4.19h0c.29,0,.57-.03.84-.09.27-.06.54-.14.79-.24,1.5-.64,2.56-2.12,2.56-3.86s-1.05-3.22-2.56-3.86Z"/><path class="cls-2" d="m872.25,158.11c.22.06.46.1.7.1h0c1.49,0,2.69-1.2,2.69-2.69s-1.21-2.69-2.69-2.69h0c-1.49,0-2.69,1.21-2.69,2.69,0,.37.08.73.21,1.05.32.76.98,1.32,1.78,1.54Z"/><path class="cls-2" d="m946.84,119.63c0-1.16-.94-2.09-2.09-2.09h0c-1.16,0-2.09.94-2.09,2.09s.94,2.09,2.09,2.09h0c1.16,0,2.09-.94,2.09-2.09Z"/><path class="cls-2" d="m1018.03,83.73c0-.83-.67-1.5-1.5-1.5s-1.5.67-1.5,1.5.67,1.5,1.5,1.5,1.5-.67,1.5-1.5Z"/><path class="cls-2" d="m1052.43,66.98c.66,0,1.2-.54,1.2-1.2s-.54-1.2-1.2-1.2-1.2.54-1.2,1.2.54,1.2,1.2,1.2Z"/><path class="cls-2" d="m1088.32,46.94c-.5,0-.9.4-.9.9s.4.9.9.9.9-.4.9-.9-.4-.9-.9-.9Z"/><path class="cls-2" d="m1160.11,11.64c-.17,0-.3.13-.3.3s.13.3.3.3.3-.13.3-.3-.13-.3-.3-.3Z"/></svg>