<?xml version="1.0" encoding="UTF-8"?><svg id="Layer_1" xmlns="http://www.w3.org/2000/svg" viewBox="0 0 310.65 310.58"><path d="m239.29,0c29.8.06,55.7,17.42,66.33,44.45,10.87,27.65,3.69,59.26-17.25,79.62-21.55,20.95-42.92,42.12-63.74,63.8-27.42,28.55-73.9,29.81-102.3,2.13-5.46-5.33-5.86-12.6-.97-17.62,4.76-4.89,11.88-4.8,17.39.23,18.55,16.92,44.73,18.22,63.53,3.05,2.61-2.11,4.98-4.53,7.36-6.91,21.34-21.35,42.9-42.49,63.9-64.17,13.79-14.22,16.78-31.57,10.22-49.93-6.44-18.03-20.03-28.19-39.06-30.41-15.38-1.8-28.78,2.8-39.83,13.88-11.98,12.01-24.06,23.92-36.02,35.96-3.9,3.93-8.37,5.42-13.6,3.56-8.19-2.91-10.43-13.2-4.19-19.61,8.79-9.02,17.64-18,26.74-26.71,7.18-6.88,14.26-14.04,22.29-19.82C211.62,3.21,225.1.01,239.29,0Z"/><path d="m71.32,310.58c-29.79-.1-55.7-17.5-66.29-44.51-10.86-27.7-3.69-59.16,17.32-79.59,21.64-21.04,43.06-42.33,64-64.07,27.24-28.28,74.08-29.38,102.04-1.79,5.33,5.25,5.79,12.33,1.15,17.36-4.73,5.13-12.01,5.12-17.64-.02-20.38-18.6-48.24-18.3-67.89,1.08-22.64,22.34-45.34,44.64-67.4,67.55-13.49,14.01-16.18,31.31-9.69,49.37,6.42,17.88,19.89,28.01,38.73,30.34,15.51,1.92,29.04-2.67,40.2-13.85,12.07-12.1,24.23-24.11,36.29-36.21,3.83-3.84,8.28-5.07,13.32-3.26,7.9,2.84,10.32,12.74,4.62,19.07-3.67,4.07-7.69,7.83-11.57,11.71-9.54,9.51-18.81,19.31-28.7,28.44-13.46,12.42-30.27,18.46-48.48,18.39Z"/></svg>